<?xml version="1.0" encoding="UTF-8" standalone="no"?>
<!-- Created with Inkscape (http://www.inkscape.org/) -->

<svg
   xmlns:dc="http://purl.org/dc/elements/1.1/"
   xmlns:cc="http://creativecommons.org/ns#"
   xmlns:rdf="http://www.w3.org/1999/02/22-rdf-syntax-ns#"
   xmlns:svg="http://www.w3.org/2000/svg"
   xmlns="http://www.w3.org/2000/svg"
   xmlns:sodipodi="http://sodipodi.sourceforge.net/DTD/sodipodi-0.dtd"
   xmlns:inkscape="http://www.inkscape.org/namespaces/inkscape"
   version="1.0"
   width="744.09448"
   height="1052.3622"
   viewBox="0 0 210 297"
   id="svg2"
   xml:space="preserve"
   sodipodi:version="0.32"
   inkscape:version="0.92.3 (2405546, 2018-03-11)"
   sodipodi:docname="11954377241335559206molumen_Skoda_Fabia_combi_1.svg"><metadata
   id="metadata28"><rdf:RDF><cc:Work
       rdf:about=""><dc:format>image/svg+xml</dc:format><dc:type
         rdf:resource="http://purl.org/dc/dcmitype/StillImage" /><dc:title></dc:title><dc:date>21 11 2006</dc:date><dc:creator><cc:Agent><dc:title>molumen</dc:title></cc:Agent></dc:creator><cc:license
         rdf:resource="http://web.resource.org/cc/PublicDomain" /><dc:subject><rdf:Bag><rdf:li>skoda</rdf:li><rdf:li>fabia</rdf:li><rdf:li>combi</rdf:li><rdf:li>car</rdf:li><rdf:li>automobile</rdf:li><rdf:li>drive</rdf:li><rdf:li>wheel</rdf:li><rdf:li>scheme</rdf:li><rdf:li>transportation</rdf:li></rdf:Bag></dc:subject></cc:Work><cc:License
       rdf:about="http://web.resource.org/cc/PublicDomain"><cc:permits
         rdf:resource="http://web.resource.org/cc/Reproduction" /><cc:permits
         rdf:resource="http://web.resource.org/cc/Distribution" /><cc:permits
         rdf:resource="http://web.resource.org/cc/DerivativeWorks" /></cc:License></rdf:RDF></metadata><sodipodi:namedview
   inkscape:window-height="1689"
   inkscape:window-width="3106"
   inkscape:pageshadow="2"
   inkscape:pageopacity="0.0"
   guidetolerance="10.0"
   gridtolerance="10.0"
   objecttolerance="10.0"
   borderopacity="1.0"
   bordercolor="#666666"
   pagecolor="#ffffff"
   id="base"
   inkscape:zoom="2"
   inkscape:cx="462.87363"
   inkscape:cy="139.23486"
   inkscape:window-x="94"
   inkscape:window-y="55"
   inkscape:current-layer="svg2"
   showgrid="false"
   inkscape:window-maximized="1" />
 <defs
   id="defs4">
  <style
   type="text/css"
   id="style6" />
 
   
   
   
  
    
    
   
     
     
     
     
     
     
    
     
     
     
     
    
    
    
    
    
    
    
   
    
    
    
    
   
  
  
  
 </defs>
 <path
   d="M 82.640416,43.664997 C 82.640416,43.664997 85.559002,43.396172 85.910239,43.251088 C 86.264067,43.10329 88.482892,42.339007 88.482892,42.339007 M 82.140271,47.276064 C 82.140271,47.276064 82.757989,47.305179 83.19867,47.422875 C 83.638364,47.540694 84.283347,47.893658 84.636434,48.274011 C 84.988782,48.656214 85.400964,49.212863 85.576274,49.536712 C 85.751337,49.858834 85.897408,50.387108 86.04422,50.564145 C 86.192018,50.740195 86.778523,51.209868 87.043894,51.44452 C 87.307784,51.679048 87.923529,52.060264 87.923529,52.060264 M 20.091617,33.009329 C 20.091617,33.009329 20.356001,31.541463 20.56129,30.924731 C 20.766702,30.30874 21.852366,27.37313 22.322039,26.285492 C 22.791959,25.200815 24.259949,21.765182 24.757998,20.767852 C 25.257897,19.769905 26.137531,17.978806 26.519858,17.332219 C 26.901814,16.686989 27.311652,15.952686 27.311652,15.952686 C 27.311652,15.952686 32.214535,15.542107 33.329314,15.512005 C 34.444958,15.482766 38.61255,15.307703 39.668975,15.277477 C 40.726387,15.248238 45.832832,15.19013 47.125389,15.19013 C 48.416342,15.19013 54.051801,15.19013 55.694978,15.19013 C 57.338895,15.19013 62.300009,15.248238 63.797115,15.336942 C 65.293481,15.424535 68.874321,15.571346 70.282847,15.659803 C 71.692606,15.747397 73.746978,15.864969 73.746978,15.864969 C 73.746978,15.864969 74.774164,17.567364 75.332541,18.654015 C 75.889067,19.740666 77.239362,22.500226 77.709282,23.555911 C 78.178955,24.613323 78.854164,26.228001 79.264619,27.226072 C 79.67532,28.224266 80.263553,29.720508 80.526579,30.601623 C 80.790223,31.481998 81.084833,33.009329 81.084833,33.009329 M 20.091617,33.009329 C 21.030469,32.980091 33.799234,32.392598 34.122096,32.392598 C 34.444958,32.392598 38.494977,32.2448 39.463686,32.2448 C 40.432764,32.2448 47.887204,32.098729 49.414536,32.098729 C 50.939894,32.098729 58.102438,32.158194 59.158986,32.187309 C 60.216398,32.216548 66.760484,32.363359 67.113448,32.363359 C 67.465549,32.363359 71.457831,32.511158 72.162156,32.540397 C 72.866604,32.569636 76.916253,32.773938 78.031403,32.833279 C 79.147046,32.891757 82.757989,33.155401 82.757989,33.155401 M 64.85354,41.992828 C 64.85354,41.992828 65.557248,37.14941 65.646322,36.67949 C 65.733915,36.209571 66.467602,32.334121 66.467602,32.334121 M 66.848818,43.195324 C 66.848818,43.195324 72.308967,43.343123 73.130247,43.343123 C 73.952268,43.343123 79.587727,43.489934 80.14598,43.519913 C 80.70263,43.548412 82.640416,43.664997 82.640416,43.664997 M 66.790463,50.131977 C 66.790463,50.131977 66.819579,43.664997 66.848818,43.166209 C 66.848818,43.166209 65.264365,42.168879 65.058829,42.050319 C 64.85354,41.932747 64.559918,41.932747 63.797115,41.874269 C 63.033573,41.815791 60.891484,41.609638 59.834072,41.522909 C 58.777647,41.434575 54.433017,41.19832 53.023628,41.169944 C 51.615103,41.140705 48.679985,41.169944 47.44751,41.228299 C 46.215035,41.287764 43.632265,41.37511 41.900631,41.49367 C 40.168134,41.609638 36.382004,41.932747 36.382004,41.932747 M 34.73784,32.392598 C 34.73784,32.392598 35.67768,37.265255 35.736898,37.558878 C 35.795252,37.852748 36.382004,41.962602 36.382004,41.962602 C 36.146612,42.02108 35.619202,42.373428 35.295476,42.579334 C 34.973355,42.784623 34.385739,43.343123 34.385739,43.343123 C 34.385739,43.343123 27.693855,43.400614 27.10735,43.400614 C 26.519858,43.400614 22.351278,43.519913 21.617962,43.548412 C 20.884398,43.577651 18.594511,43.694236 18.594511,43.694236 M 34.444958,50.22031 C 34.444958,50.22031 34.385739,43.635759 34.385739,43.224563 M 42.985308,43.31302 C 42.164398,43.343123 40.696408,43.400614 39.904367,43.459091 C 39.111709,43.519913 37.526146,43.577651 37.204024,43.664997 C 36.880916,43.753701 36.67501,43.782817 36.67501,44.223374 C 36.67501,44.663315 36.67501,46.542377 36.704866,46.893737 C 36.734105,47.247812 36.734105,47.775099 36.939394,48.360987 C 37.14456,48.94922 37.349849,49.096278 37.849007,49.126134 C 38.348166,49.154386 42.428042,49.272205 43.367634,49.272205 C 44.306487,49.272205 50.03028,49.272205 51.116931,49.272205 C 52.202595,49.272205 57.779576,49.243089 59.042031,49.212863 C 60.303992,49.183625 62.18145,49.154386 62.975218,49.096278 C 63.767136,49.036813 64.089998,48.94922 64.265308,48.537901 C 64.442345,48.1272 64.589156,47.247812 64.589156,46.483282 C 64.589156,45.72048 64.589156,44.458026 64.589156,44.223374 C 64.589156,43.987119 64.471337,43.753701 63.913948,43.664997 C 63.355694,43.577651 60.303992,43.400614 58.982936,43.343123 C 57.661757,43.283781 54.962155,43.13771 54.228838,43.166209 C 53.494288,43.195324 53.43507,43.195324 53.288999,43.489934 C 53.142188,43.782817 52.936898,44.398561 52.730746,44.663315 C 52.524716,44.927699 52.172369,45.308298 51.615103,45.485212 C 51.058453,45.661262 50.412606,45.838299 49.825114,45.602908 C 49.238239,45.366652 48.768566,44.986176 48.445581,44.428787 C 48.122719,43.870533 48.064241,43.459091 47.887204,43.31302 C 47.711894,43.166209 47.213105,43.195324 46.156557,43.224563 C 45.099145,43.253802 43.808315,43.283781 42.985308,43.31302 L 42.985308,43.31302 z M 28.162788,11.784353 C 28.162788,11.784353 27.10735,13.662798 26.754262,14.191813 C 26.402038,14.720951 25.403968,16.4817 24.993513,17.244502 C 24.582071,18.007305 23.173299,20.767852 22.351278,22.587079 C 21.530245,24.408034 20.766702,26.462529 20.297523,27.636774 C 19.826986,28.811758 19.005953,30.807036 18.828916,31.511237 C 18.652865,32.216548 18.301629,33.449023 18.183933,34.329398 C 18.066113,35.209896 18.125578,37.735175 18.242164,39.203782 C 18.359983,40.671032 18.594511,43.95788 18.770561,45.015292 C 18.946488,46.07184 19.064431,47.363657 19.182003,47.65654 C 19.298835,47.951149 19.474886,48.597119 20.766702,48.77317 C 22.058396,48.94922 28.222253,49.536712 29.337032,49.653544 C 30.452675,49.771117 33.857465,49.947414 34.385739,50.124204 C 34.914137,50.299514 35.500642,50.651615 36.088135,50.769434 C 36.67501,50.887994 40.314945,51.180629 47.770372,51.121411 C 55.225799,51.062317 57.750461,51.121411 59.217341,51.062317 C 60.686195,51.003839 64.030903,51.003839 64.912018,50.769434 C 65.792393,50.533919 66.321531,50.183546 66.966637,50.064986 C 67.612607,49.947414 74.0691,49.360662 75.243097,49.243089 C 76.417465,49.126134 79.646945,48.77317 80.175219,48.656214 C 80.70263,48.537901 81.524527,48.713952 81.995187,47.775099 C 82.464119,46.835383 82.757989,42.784623 82.874945,41.37511 C 82.992517,39.966585 83.345481,35.974426 82.992517,34.329398 C 82.640416,32.686221 82.640416,32.039511 81.876627,30.103451 C 81.114072,28.165911 80.233697,25.639522 79.059329,23.175312 C 77.886072,20.709497 76.712075,18.126604 76.124582,17.068452 C 75.536967,16.012027 74.71507,14.426341 74.246137,13.781358 C 73.776217,13.134648 73.071893,11.842831 73.071893,11.842831 M 13.209741,42.102628 C 13.209741,42.102628 15.238699,43.009898 15.826191,43.184838 C 16.412697,43.361875 18.594511,43.694236 18.594511,43.694236 M 12.783001,48.77317 C 12.783001,48.77317 13.604898,52.882284 13.663376,53.235989 C 13.722471,53.587349 14.074818,55.349209 14.133296,55.876496 C 14.192391,56.405634 14.426919,58.519471 14.602969,59.399845 C 14.779019,60.28022 15.248199,63.921266 15.483344,64.919213 C 15.718735,65.916543 15.894786,67.149882 16.246886,67.56046 C 16.599233,67.971902 17.420143,68.559395 18.359983,68.676227 C 19.298835,68.793923 22.704366,69.029314 22.704366,69.029314"
   style="fill:none;fill-rule:nonzero;stroke:#1b1c20;stroke-width:0.26771486"
   id="_154960648" /><path
   d="M 13.487326,52.296519 C 13.604898,52.060264 13.722471,51.884954 14.309346,51.416021 C 14.896838,50.946101 15.189721,50.651615 15.424866,50.064986 C 15.659394,49.478234 16.129314,48.77317 16.599233,48.30325 C 17.068166,47.833577 17.654672,47.482217 18.007636,47.422875 C 18.359983,47.363657 19.005953,47.247812 19.005953,47.247812 M 62.681472,59.458323 C 61.977148,59.458323 39.492925,59.429825 38.61255,59.429825 M 63.268101,58.870831 C 63.268101,58.870831 63.444151,54.232579 63.38666,53.881959 C 63.326455,53.528994 63.268101,53.176894 62.856536,53.118416 C 62.447068,53.059321 38.906419,53.059321 38.554072,53.059321 C 38.201108,53.059321 37.849007,53.411299 37.849007,53.646814 C 37.849007,53.881959 37.96658,58.870831 37.96658,58.870831 M 85.046889,57.050617 L 84.812485,58.930913 L 63.326455,58.930913 C 63.326455,58.930913 63.092051,58.813093 62.916,58.98939 C 62.739703,59.165441 62.681472,59.399845 62.681472,59.399845 M 16.246886,57.050617 L 16.423183,58.930913 L 37.96658,58.930913 C 37.96658,58.930913 38.084399,58.813093 38.318927,58.98939 C 38.554072,59.165441 38.61255,59.399845 38.61255,59.399845 M 63.355694,56.992139 L 87.013915,57.050617 M 14.250868,57.050617 L 37.908102,57.109958 M 78.472824,68.853264 C 78.472824,68.853264 80.233697,68.793923 81.056334,68.734705 C 81.876627,68.676227 83.28614,68.618613 83.93211,68.324003 C 84.577216,68.03038 85.281417,67.38441 85.516809,66.151935 C 85.751337,64.919213 86.514139,60.57483 86.749284,59.165441 C 86.984799,57.755928 87.336777,55.056326 87.453732,54.409369 C 87.571551,53.763646 88.217275,50.887994 88.335094,50.357869 M 13.311029,55.759664 C 13.311029,55.759664 13.311029,73.667567 13.311029,74.254072 C 13.311029,74.841564 13.276732,77.121952 13.922702,77.591872 C 14.568548,78.060804 16.657588,77.952731 17.890063,77.952731 C 19.122538,77.952731 21.294853,78.011826 21.706295,77.600384 C 22.117861,77.189929 22.528316,76.250336 22.586793,74.13724 C 22.645148,72.023526 22.528316,69.263842 22.76272,68.96985 C 22.997248,68.676227 24.230711,69.029314 25.403968,68.559395 C 26.578212,68.089475 26.871958,67.67902 27.752333,67.501983 C 28.632708,67.325932 46.654729,67.443505 50.177091,67.443505 C 53.698714,67.443505 69.84414,67.38441 70.957932,67.325932 C 72.073822,67.267578 72.954197,67.149882 73.659385,67.443505 C 74.361982,67.736511 75.831576,68.618613 76.535037,68.734705 C 77.239362,68.853264 78.296774,68.676227 78.531302,68.911495 C 78.765707,69.1459 78.648874,71.787147 78.648874,72.493199 C 78.648874,73.197647 78.648874,74.958396 78.706365,75.487534 C 78.765707,76.014821 78.882662,76.954661 79.411677,77.307502 C 79.940814,77.658862 80.23197,77.834172 83.462437,77.893267 C 86.021026,77.941505 87.357503,78.060804 87.651372,77.475039 C 87.944255,76.889151 88.159044,75.898976 88.159044,74.547941 C 88.159044,73.197647 87.864434,60.633308 87.864434,58.98939 C 87.864434,57.345226 87.923529,54.586406 87.923529,54.586406 C 87.923529,54.586406 88.394188,50.124204 88.510157,49.360662 C 88.627976,48.597119 88.510157,42.491 88.451926,41.552147 C 88.394188,40.612555 88.159044,38.733246 87.864434,37.794393 C 87.571551,36.853813 86.808749,35.092941 86.808749,35.092941 C 86.808749,35.092941 87.571551,34.975368 88.335094,35.033846 C 89.098636,35.092941 90.857659,35.152405 91.797251,35.092941 C 92.738818,35.033846 94.557058,35.092941 95.086196,34.740963 C 95.613483,34.388616 95.907353,33.743633 95.848998,32.862518 C 95.789534,31.981156 95.379079,30.807036 95.143564,30.454812 C 94.909159,30.103451 94.028784,29.984152 93.206764,29.809829 C 92.384744,29.633778 90.330371,29.456741 89.391519,29.398387 C 88.451926,29.339909 87.806696,29.339909 87.453732,29.514232 C 87.101632,29.691269 86.749284,30.161189 86.632699,30.689216 C 86.514139,31.218354 86.455662,31.981156 86.397184,32.275026 C 86.339816,32.569636 85.986729,32.686221 85.751337,32.627126 C 85.516809,32.569636 85.223926,32.275026 84.754007,31.335186 C 84.283347,30.396334 82.699634,25.639522 82.228975,24.466512 C 81.760782,23.291527 79.940814,19.828259 79.177272,18.41961 C 78.413483,17.010098 76.417465,14.015763 75.889067,13.486748 C 75.36178,12.958351 74.774164,12.313491 73.718726,12.018881 C 72.661314,11.725875 68.493722,11.196861 66.966637,11.021551 C 65.440292,10.845501 59.452856,10.434059 57.104491,10.434059 C 54.756126,10.434059 48.592392,10.198914 45.422994,10.375581 C 42.251745,10.552618 35.795252,10.903978 32.977091,11.196861 C 30.159052,11.491471 27.517805,11.725875 26.636443,12.313491 C 25.757055,12.900983 24.465115,14.485682 23.40869,16.246555 C 22.351278,18.007305 20.414479,21.355344 19.769495,22.880702 C 19.122538,24.408034 17.949281,27.108499 17.478621,28.634844 C 17.009688,30.161189 16.833638,31.101645 16.599233,31.511237 C 16.363718,31.923666 16.011741,32.627126 15.483344,32.686221 C 14.954329,32.744699 14.602969,32.334121 14.544491,32.039511 C 14.485396,31.746628 14.544491,30.514153 14.309346,30.04337 C 14.074818,29.5753 13.487326,29.279827 12.842096,29.339909 C 12.196126,29.398387 10.493854,29.456741 9.7886663,29.750364 C 9.0843418,30.04337 8.5569312,30.572631 8.4393588,30.924731 C 8.3217863,31.276709 8.0872582,32.275026 8.0872582,32.862518 C 8.0872582,33.449023 8.1454893,34.271044 8.4393588,34.564913 C 8.7329815,34.859523 9.2603921,34.975368 10.140767,35.092941 C 11.022129,35.209896 12.724524,34.859523 13.134979,34.975368 C 13.546544,35.092941 14.309346,35.209896 14.309346,35.209896 C 14.309346,35.209896 13.780949,36.795336 13.546544,37.499783 C 13.311029,38.204848 12.959052,39.849752 12.900574,40.787618 C 12.842096,41.727457 12.724524,44.60385 12.724524,45.54369 C 12.724524,46.483282 12.842096,50.124204 12.900574,50.769434 C 12.959052,51.416021 13.076624,53.293726 13.134979,53.763646 C 13.194443,54.232579 13.311029,55.759664 13.311029,55.759664 L 13.311029,55.759664 z "
   style="fill:none;fill-rule:nonzero;stroke:#1b1c20;stroke-width:0.26771486"
   id="_154960672" /><line
   id="_154959048"
   class="fil0 str2"
   x1="12.387844"
   y1="78.101273"
   x2="88.973915"
   y2="78.115829"
   style="fill:none;fill-rule:nonzero;stroke:#1b1c20;stroke-width:0.43525255;stroke-linecap:round" /><path
   d="M 86.808749,35.092941 L 85.323487,32.288597 M 14.309346,35.209896 L 16.196181,32.16831"
   style="fill:none;fill-rule:nonzero;stroke:#1b1c20;stroke-width:0.26771486"
   id="_155135408" /><path
   d="M 179.18989,48.561792 L 140.53258,48.776501 C 140.53258,48.776501 139.41669,48.277712 139.03535,48.012958 C 138.65414,47.750055 138.27181,47.368098 138.0374,47.132583 L 136.74621,45.254138 C 136.74621,45.254138 136.45258,44.608291 136.27653,44.109133 L 135.13153,39.001207 C 135.13153,39.001207 134.01588,32.365827 134.01588,32.131299 C 134.01588,31.896894 136.62863,24.292929 136.62863,24.292929 C 136.62863,24.292929 138.38951,18.774302 138.74173,18.334608 C 139.09383,17.89294 140.00344,17.159623 141.00151,16.895856 C 141.99946,16.632213 147.87044,15.692373 147.87044,15.692373 C 147.87044,15.692373 152.36077,15.339409 153.50565,15.339409 C 154.65065,15.339409 162.19281,15.368524 163.3087,15.339409 C 164.42447,15.31017 170.82359,15.60404 170.82359,15.60404 C 170.82359,15.60404 176.04823,16.337603 176.78191,16.573735 C 177.51523,16.807276 178.42484,17.071907 178.89476,17.33629 C 179.3637,17.600057 179.95217,17.922179 180.15746,18.481419 C 180.36263,19.037945 180.74397,20.242909 180.97936,20.829661 C 181.21315,21.417276 182.91715,26.436745 182.91715,26.436745 C 182.91715,26.436745 184.67802,31.514691 184.70627,31.690865 C 184.73724,31.866915 184.11977,36.564262 184.11977,36.564262 C 184.11977,36.564262 182.9454,42.2297 182.85781,42.670381 C 182.76849,43.110199 182.29955,44.724137 182.1826,44.930413 L 180.44327,47.447676 L 179.18989,48.561792 z "
   style="fill:none;fill-rule:nonzero;stroke:#1b1c20;stroke-width:0.21762627;stroke-dasharray:0.21713278, 0.21713278"
   id="_155182072"
   sodipodi:nodetypes="ccsccccscsscssccssccsccccc" /><path
   style="fill:none;fill-rule:nonzero;stroke:#1b1c20;stroke-width:0.21762627;stroke-dasharray:0.21713278, 0.21713278"
   d="M 144.61196,19.947559 C 144.1128,19.947559 142.82099,20.007764 142.14603,20.037003 C 141.47094,20.066858 140.79573,20.124596 140.44363,20.301387 C 140.09141,20.476697 139.56326,20.770319 139.4162,20.947357 C 139.26939,21.122667 138.91803,21.915325 138.74124,22.238186 C 138.56506,22.562035 138.24294,23.588481 138.15448,24.028298 C 138.06615,24.469966 137.86086,25.55563 137.86086,25.849253 C 137.86086,26.143122 137.68456,26.553577 137.92008,26.876439 C 138.15448,27.200287 138.27132,27.4057 138.79947,27.4057 C 139.32873,27.4057 143.05564,27.522409 143.99523,27.49317 C 144.93483,27.463191 147.69291,27.434692 148.48667,27.434692 C 149.27834,27.434692 150.1296,27.434692 150.39423,27.31712 C 150.65862,27.200287 151.00998,26.93578 151.00998,26.553577 C 151.00998,26.172238 150.92239,25.350341 150.83492,24.73361 C 150.74633,24.117619 150.36401,22.796563 150.07113,22.180079 C 149.7775,21.562361 149.45439,21.03495 149.10242,20.742067 C 148.75032,20.447458 148.33962,20.213053 147.63443,20.124596 C 146.9301,20.037003 145.11014,19.947559 144.61196,19.947559 L 144.61196,19.947559 z "
   id="path1895" /><path
   style="fill:none;fill-rule:nonzero;stroke:#1b1c20;stroke-width:0.21762627;stroke-dasharray:0.21713278, 0.21713278"
   d="M 173.84729,19.684655 C 173.1421,19.684655 171.7617,19.684655 170.91044,19.830727 C 170.05931,19.977538 169.32587,20.241182 169.00375,20.623508 C 168.68076,21.005711 168.09315,22.238186 167.94634,22.678867 C 167.79952,23.119548 167.53588,24.26443 167.4473,24.791841 C 167.36057,25.321102 167.29975,26.289933 167.36057,26.465243 C 167.41806,26.641294 167.50565,27.023497 167.88798,27.081975 C 168.27018,27.140082 170.20637,27.229526 171.029,27.229526 C 171.8493,27.229526 174.43305,27.258642 175.16736,27.258642 C 175.90166,27.258642 178.9826,27.140082 179.42254,27.081975 C 179.8631,27.023497 180.39236,26.965759 180.45158,26.583556 C 180.50895,26.201476 180.53819,25.878368 180.42234,25.086697 C 180.30378,24.293669 180.04001,23.236504 179.89222,22.766584 C 179.74713,22.296664 179.27721,21.328819 179.12966,21.064189 C 178.9826,20.800545 178.63149,20.447458 178.36686,20.27042 C 178.10223,20.096097 177.36792,19.889945 177.01656,19.860952 C 176.66348,19.830727 175.75411,19.713894 175.25507,19.713894 C 174.7569,19.713894 174.55063,19.684655 173.84729,19.684655 L 173.84729,19.684655 z "
   id="_155168792" /><path
   d="M 174.46279,36.857268 C 174.46279,36.857268 174.46279,38.150072 174.37507,38.648983 C 174.28674,39.147155 174.11044,40.732841 173.99385,41.231753 C 173.87529,41.729925 173.64151,43.34559 173.4947,43.81551 C 173.34788,44.283456 173.055,44.813457 172.81961,45.047985 C 172.58508,45.283377 172.11442,45.488666 171.00026,45.45844 C 169.88375,45.428461 165.95069,45.547144 165.21799,45.547144 C 164.48368,45.547144 161.04966,45.547144 159.90465,45.547144 C 158.75977,45.547144 154.67989,45.576259 153.564,45.547144 C 152.44922,45.517905 150.30713,45.576259 149.36754,45.547144 C 148.4277,45.517905 146.90136,45.576259 146.31485,45.341855 C 145.72736,45.106463 145.58129,44.490596 145.34503,43.873001 C 145.11162,43.257257 144.78851,41.407803 144.70005,40.49819 C 144.61246,39.587836 144.29034,36.915622 144.29034,36.915622 M 137.0323,13.197197 C 137.0323,13.197197 155.46922,12.565168 156.96645,12.594406 C 158.46257,12.624386 181.73513,13.188684 181.73513,13.188684"
   style="fill:none;fill-rule:nonzero;stroke:#1b1c20;stroke-width:0.26771486"
   id="_155168816" /><path
   d="M 193.83572,32.131299 C 194.18782,32.365827 194.8328,32.953319 195.00811,33.364761 C 195.18503,33.776326 195.5956,34.539129 195.5956,34.539129 M 194.27443,37.474863 C 194.27443,37.474863 194.59827,37.474863 194.94963,37.532353 C 195.30272,37.591571 195.71318,37.649926 195.86024,37.73863 C 196.00705,37.826963 196.81105,38.270111 196.81105,38.270111 M 131.37451,65.853624 C 131.37451,66.88118 131.34441,75.197242 131.25768,75.871464 C 131.16836,76.546673 130.87548,77.134906 130.25875,77.545608 C 129.643,77.955076 128.58559,77.809991 126.70714,77.897708 C 124.8287,77.985301 123.18552,77.662193 122.74484,77.27999 C 122.30515,76.899637 122.18758,76.165087 122.07062,75.696154 C 121.95305,75.226481 122.04052,73.259456 122.04052,73.259456 C 122.04052,73.259456 122.15735,62.163107 122.15735,61.517137 C 122.15735,60.87018 122.15735,57.613188 122.1291,56.731826 C 122.09887,55.851452 121.83449,53.620042 121.74677,52.768043 C 121.65844,51.917647 121.54161,49.62776 121.48214,48.80574 C 121.42379,47.983843 121.42379,45.869882 121.42379,44.608291 C 121.42379,43.34559 121.65844,40.468951 121.74677,39.587836 C 121.83449,38.707338 122.21669,37.445747 122.42272,36.741299 C 122.62801,36.036235 123.21476,34.773533 123.21476,34.773533 C 123.21476,34.773533 120.27964,34.684953 119.164,34.715796 C 118.04922,34.744294 115.9645,34.567381 115.26018,34.50989 C 114.55573,34.450425 114.43914,33.950649 114.32058,33.334905 C 114.20375,32.718914 114.35056,31.896894 114.3798,31.543807 C 114.40892,31.19257 114.79026,30.281476 115.05489,30.077667 C 115.31853,29.87065 115.99374,29.606267 117.19796,29.402705 C 118.4012,29.195565 120.19131,28.991263 121.36555,28.991263 C 122.53955,28.991263 122.74484,29.343363 123.00849,29.636246 C 123.27386,29.930115 123.36157,30.51662 123.44991,31.19257 C 123.53762,31.866915 123.68369,32.101443 123.94907,32.220002 C 124.21271,32.336835 124.91716,32.249241 124.91716,32.249241 C 124.91716,32.249241 125.67996,29.665485 125.9151,28.784986 C 126.14963,27.903872 127.85203,23.794757 128.49787,22.325903 C 129.14384,20.857913 131.49147,16.807276 132.19653,15.633278 C 132.90086,14.458911 134.36885,12.521371 135.01383,11.992973 C 135.65968,11.465686 136.95162,11.171076 136.95162,11.171076 M 185.82204,65.905316 C 185.82204,65.905316 184.11964,64.2424 179.41008,64.2424 C 169.8914,64.2424 157.10524,64.295696 155.67784,64.295696 C 154.42896,64.295696 147.14785,64.101634 140.4387,64.101634 C 135.22418,64.101634 133.42124,65.905316 133.42124,65.905316 M 181.77202,11.171076 C 181.77202,11.171076 182.71087,11.376242 183.21003,11.640996 C 183.70808,11.90464 184.20625,12.345074 184.70615,13.020283 C 185.20605,13.695368 186.52612,15.544575 187.40748,16.954334 C 188.28699,18.363847 189.57979,20.918118 190.25476,22.238186 C 190.92984,23.559365 192.04474,26.37654 192.51466,27.698706 C 192.98458,29.020502 193.86496,32.131299 193.86496,32.131299 C 193.86496,32.131299 194.71523,32.249241 195.09743,32.101443 C 195.47865,31.956359 195.50789,31.485452 195.47865,31.015779 C 195.44953,30.545859 195.56735,29.665485 195.74242,29.343363 C 195.91871,29.020502 196.29993,28.843464 197.50415,28.843464 C 198.70739,28.843464 199.64723,29.077992 200.35143,29.313384 C 201.05575,29.547789 201.49545,30.136021 201.70172,30.781251 C 201.90689,31.426234 201.99461,32.365827 201.81856,33.305666 C 201.64152,34.246246 200.90796,34.362091 200.26297,34.450425 C 199.617,34.539129 197.6802,34.539129 197.18104,34.50989 C 196.68226,34.480651 195.56735,34.567381 195.56735,34.567381 C 195.56735,34.567381 195.91871,35.437516 196.18408,36.123581 C 196.47697,36.886383 197.06347,38.941866 197.12195,39.822241 C 197.18104,40.704343 197.41582,43.404808 197.41582,44.695885 C 197.41582,45.987578 197.41582,48.98179 197.23952,50.978795 C 197.06347,52.974072 196.77059,55.674661 196.65302,56.497422 C 196.53544,57.317715 196.71211,58.376114 196.71211,60.020031 C 196.71211,61.662961 196.9459,73.347049 196.88816,74.579524 C 196.82907,75.812987 196.59454,76.634267 196.00705,77.105667 C 195.42054,77.574846 193.8942,77.516369 193.07218,77.574846 C 192.25003,77.632954 190.19652,77.574846 189.60804,77.574846 C 189.02154,77.574846 188.37557,77.164021 187.96487,76.459697 C 187.55355,75.754632 187.55355,66.185245 187.55355,65.657217 M 187.34814,31.133352 C 187.37725,30.898947 187.40748,30.136021 187.37725,29.930115 C 187.34814,29.723839 187.23217,29.372479 187.14285,29.048753 C 187.05513,28.726632 184.35479,20.535791 184.11964,19.860952 C 183.88487,19.184757 182.15336,14.371564 181.94733,13.784072 C 181.74278,13.197197 181.44817,12.463633 181.44817,12.110669 C 181.44817,11.758569 181.36058,11.348114 181.41819,11.200315 M 131.49147,29.783057 C 131.49147,29.783057 132.81228,29.636246 133.66354,29.606267 C 134.51467,29.577028 137.03896,29.489434 138.44872,29.402705 C 139.85725,29.313384 148.25153,29.107108 150.10073,29.137334 C 151.95019,29.166326 163.19261,29.048753 165.2756,29.077992 C 167.3602,29.107108 174.69781,29.107108 175.90043,29.166326 C 177.10465,29.225667 183.18079,29.460195 184.11964,29.460195 C 185.05825,29.460195 187.28991,29.547789 187.28991,29.547789 M 131.55056,31.19257 C 131.52145,30.898947 131.40375,30.663432 131.43299,30.34057 C 131.46297,30.016722 131.52145,29.489434 131.75585,28.814225 C 131.99124,28.13914 133.36979,23.912329 133.60506,23.118684 C 133.83946,22.325903 135.42527,18.011499 135.60132,17.33629 C 135.77737,16.661452 136.59927,14.458911 136.8338,13.784072 C 137.06919,13.108863 137.42055,12.023199 137.42055,11.788548 C 137.42055,11.553279 137.33296,11.317888 137.15691,11.25867 C 136.98086,11.200315 136.89215,11.200315 136.89215,11.200315 M 186.99702,31.19257 L 185.85115,37.034182 C 185.85115,37.034182 180.65638,36.915622 179.89357,36.915622 C 179.12904,36.915622 170.76499,36.799777 169.56249,36.799777 C 168.35728,36.799777 162.60413,36.857268 161.07778,36.829016 C 159.55243,36.799777 152.6835,36.886383 151.86161,36.886383 C 151.03959,36.886383 146.31473,36.915622 144.9352,36.915622 C 143.55591,36.915622 140.38565,37.034182 138.41948,37.034182 C 136.45246,37.034182 133.13539,37.063421 133.01855,37.063421 C 132.90086,37.063421 132.57787,35.391005 132.43106,34.539129 C 132.28425,33.686882 131.78608,31.28115 131.78608,31.28115 M 132.98833,37.416508 C 132.98833,37.416508 134.48543,44.665659 134.60325,45.194797 C 134.72095,45.723811 135.30745,48.718146 135.36581,48.776501 C 135.42527,48.835965 138.88842,48.893456 139.50515,48.893456 C 140.12188,48.893456 145.63952,48.893456 146.46154,48.893456 C 147.28344,48.893456 155.47255,48.864217 156.58745,48.864217 C 157.70223,48.864217 166.09762,48.835965 167.12481,48.835965 C 168.15298,48.835965 173.55305,48.835965 174.87485,48.80574 C 176.19491,48.776501 180.09788,48.718146 180.86241,48.718146 C 181.62422,48.718146 183.26838,48.688167 183.38596,48.628702 C 183.50365,48.570595 184.03094,45.930087 184.23796,44.901174 C 184.44251,43.873001 185.7928,37.26871 185.7928,37.26871"
   style="fill:none;fill-rule:nonzero;stroke:#1b1c20;stroke-width:0.26771486"
   id="_155168928" /><path
   d="M 122.89005,52.76977 C 122.714,52.858227 122.77248,53.621769 122.80172,53.914652 C 122.83058,54.207534 122.94853,54.648215 123.09534,54.737536 C 123.24215,54.825252 124.29857,54.854368 125.0029,54.854368 C 125.70735,54.854368 140.55985,54.796014 140.55985,54.796014 L 156.14591,54.766775 L 173.52122,54.708297 L 187.5517,54.677454 C 187.5517,54.677454 194.86118,54.648215 195.00824,54.648215 C 195.15505,54.648215 195.47717,54.648215 195.5655,54.120805 C 195.6531,53.59253 195.74254,53.151109 195.74254,52.946807 C 195.74254,52.741271 195.68135,52.59372 195.36021,52.564481 C 195.03809,52.535365 181.38821,52.59372 181.38821,52.59372 L 167.00637,52.652938 L 149.89298,52.683164 L 136.77372,52.711415 L 124.03493,52.76977 C 124.03493,52.76977 123.0661,52.683164 122.89005,52.76977 L 122.89005,52.76977 z M 185.82118,65.786017 C 191.09047,65.517192 191.09133,65.609966 192.63483,65.404431 C 195.64027,65.003475 195.79411,61.693187 195.94092,61.341087 C 196.08773,60.987999 196.82475,54.794286 196.94232,54.001505 C 197.06014,53.209464 197.23866,51.390236 197.23866,50.978795 C 197.23866,50.567599 197.46393,49.578041 197.40447,49.43197 C 197.34698,49.285159 196.85732,48.100675 196.65215,47.777566 C 196.4476,47.454705 195.27361,47.895386 195.18416,47.543162 M 193.98685,62.319418 L 123.61658,62.493741 M 133.42037,65.905316 C 133.42037,65.905316 126.60401,65.631433 126.23291,65.631433 C 123.65112,65.631433 123.10484,60.831688 122.89955,59.892959 C 122.69327,58.953119 122.1513,56.710483 122.09295,56.151366 C 122.03373,55.59484 121.69533,52.181291 121.66683,51.771823 C 121.63685,51.360257 121.75109,49.424198 121.8979,49.07037 C 122.04397,48.719133 122.20534,48.766384 122.4416,48.326567 C 122.676,47.884899 123.87862,47.864543 123.93697,47.451991 M 124.12425,43.785284 C 124.18261,42.758098 124.44736,37.973774 124.53495,37.327064 C 124.62341,36.682205 125.00389,36.200071 125.35599,35.642805 C 125.70895,35.084428 126.58427,34.060696 126.90713,33.738575 C 127.23024,33.414726 127.59616,33.102104 128.28494,32.413078 C 129.14804,31.549975 130.84537,31.36788 131.4906,31.309402 C 132.13633,31.250924 135.71729,30.956314 136.83293,30.927075 C 137.9487,30.898947 143.87717,30.605201 144.66995,30.605201 C 145.46261,30.605201 151.88986,30.429027 154.03294,30.399048 C 156.17601,30.370549 162.92637,30.34057 164.27642,30.370549 C 165.62783,30.399048 170.20489,30.458143 172.0842,30.51662 C 173.96363,30.576085 181.06683,30.840469 182.00568,30.898947 C 182.94441,30.956314 185.26354,31.045758 186.05632,31.104113 C 186.84836,31.163577 187.67038,31.19257 188.49228,31.28115 C 189.3143,31.36788 191.00473,32.468101 191.53214,32.937034 C 192.06016,33.406954 192.71897,34.012458 193.24736,35.041372 C 193.77638,36.067817 194.09764,36.094589 194.18696,36.886383 C 194.27356,37.679165 194.3028,37.944536 194.39225,39.059438 C 194.47984,40.175328 194.62665,41.260992 194.62665,42.112128 C 194.62665,42.964251 195.04759,45.449187 195.04759,45.772049 C 195.04759,46.094911 195.2477,47.333678 195.2477,47.792124 C 195.2477,49.471449 194.94704,50.180215 194.03743,50.473097 C 193.12782,50.76598 190.36727,50.869735 189.54537,50.958315 C 188.72409,51.046032 185.58665,51.196174 181.53675,51.313747 C 177.48525,51.431689 171.05701,51.489057 169.88277,51.489057 C 168.70938,51.489057 159.46323,51.549262 158.02522,51.549262 C 156.58659,51.549262 148.83816,51.5785 147.37029,51.549262 C 145.90242,51.519036 140.14927,51.460681 138.74074,51.431689 C 137.33209,51.40245 134.0149,51.283891 132.40096,51.138807 C 130.7869,50.991008 128.50922,51.24947 127.61664,50.999521 C 124.30289,50.072759 123.75068,50.698002 123.90194,48.268953 C 123.92575,47.878114 124.00569,46.779619 124.00569,46.39902 C 124.00569,46.016817 124.06503,44.813457 124.12425,43.785284 L 124.12425,43.785284 z M 122.14699,37.942932 C 122.3524,37.825236 123.18466,37.679165 123.566,37.679165 C 123.9482,37.679165 124.33213,37.679165 124.4497,37.532353 M 124.85782,32.249241 C 124.85782,32.249241 124.21185,32.895088 124.00569,33.188711 C 123.8004,33.481717 123.15542,34.802772 123.15542,34.802772 M 137.15604,11.25867 C 137.15604,11.25867 144.3176,10.61344 145.5803,10.554345 C 146.84214,10.495867 152.03766,10.349056 153.62248,10.320804 C 155.2073,10.290702 160.13831,10.231484 162.01676,10.231484 C 163.89521,10.231484 169.00239,10.349056 170.76413,10.408274 C 172.52488,10.466629 175.19512,10.61344 176.31199,10.701157 C 177.42677,10.789737 181.41733,11.200315 181.41733,11.200315"
   style="fill:none;fill-rule:nonzero;stroke:#1b1c20;stroke-width:0.26771486"
   id="_155135192" /><line
   id="_155273944"
   class="fil0 str2"
   x1="121.54283"
   y1="78.101273"
   x2="198.12903"
   y2="78.115829"
   style="fill:none;fill-rule:nonzero;stroke:#1b1c20;stroke-width:0.43525255;stroke-linecap:round" /><path
   d="M 19.464152,207.58569 C 20.20191,207.32131 21.321872,206.96551 21.588229,206.90802 C 21.851873,206.84867 22.913479,206.7311 23.385126,206.64264 C 23.85665,206.55505 25.448258,206.17112 26.361326,205.84629 C 27.275134,205.5217 29.310014,204.8149 29.928472,204.54929 C 30.547671,204.28392 31.107651,203.98931 31.637653,203.87173 C 32.168518,203.75404 33.7299,203.48867 35.823257,203.31175 C 37.916491,203.13472 41.659564,202.84011 43.782037,202.78089 C 45.904387,202.72253 50.619993,202.69231 52.418494,202.72253 C 54.215391,202.75165 56.987165,202.87033 58.077147,202.98692 C 59.167252,203.10474 59.817293,203.34001 60.346308,203.45856 C 60.87816,203.57712 63.411951,203.48867 64.237303,203.45856 C 65.063641,203.42859 70.102849,203.37011 70.102849,203.37011 C 70.102849,203.37011 71.135463,201.3963 71.548632,200.77512 C 71.960814,200.15679 72.638491,199.27296 73.168492,198.97662 C 73.699234,198.68374 74.377897,198.35817 74.966376,198.32893 C 75.555472,198.29981 76.381687,198.38839 76.410803,198.50695 C 76.440042,198.62452 76.292243,199.21374 76.058826,199.71463 C 75.821707,200.21613 74.523968,203.22231 74.523968,203.22231 C 74.523968,203.22231 77.677945,203.16321 78.327246,203.16321 C 78.975684,203.16321 88.466114,203.07624 88.466114,203.07624 C 88.466114,203.07624 99.726546,203.04626 100.46356,203.04626 C 101.20033,203.04626 111.16229,203.04626 112.31149,203.07624 C 113.46069,203.10474 123.21822,203.22231 124.4861,203.25229 C 125.75287,203.28079 134.32999,203.45856 135.56949,203.48867 C 136.80542,203.51791 141.16967,203.60636 141.52177,203.63622 C 141.87572,203.66472 142.43669,203.69568 142.78879,203.63622 C 143.14262,203.57712 154.67385,203.09598 157.38542,202.95015 C 160.09797,202.80137 172.05064,202.89858 173.4662,202.9277 C 174.88003,202.95768 175.10061,203.52889 177.22407,203.64671 C 179.34568,203.76428 181.46532,203.99362 182.49522,204.05284 C 183.52685,204.11231 184.26288,204.1999 184.61695,204.22988 C 184.96992,204.25912 185.79699,204.13809 186.62074,204.31476 C 187.44609,204.4918 188.21309,204.57951 188.80243,204.8149 C 189.39239,205.05104 192.1332,205.9641 193.46042,206.96551 C 194.7874,207.96888 196.34804,209.79662 197.58755,211.8906 C 198.82521,213.98297 200.17785,217.13694 200.82727,219.73168 C 201.47485,222.32568 202.30217,226.71743 202.56495,230.40326 C 202.83131,234.08872 203.06571,239.48188 202.97812,242.57849 C 202.8888,245.673 202.74199,251.15733 202.41814,253.95748 C 202.0933,256.75849 201.44326,260.08939 200.79631,262.447 C 200.14528,264.80647 199.2047,267.96045 198.17332,269.55132 C 197.14083,271.14539 195.90058,272.37281 194.95827,273.31672 C 194.01596,274.2589 192.81273,274.95891 192.25102,275.19443 C 191.69079,275.43056 191.07246,275.54838 190.74787,275.69519 C 190.42402,275.84373 188.66253,276.35041 187.71825,276.67426 C 186.77533,276.99811 184.40636,277.18193 183.61111,277.29975 C 182.81475,277.41831 181.30124,277.8907 177.38125,278.09759 C 173.46015,278.30387 173.803,279.33352 170.56056,279.30354 C 167.31801,279.27529 148.71886,279.80504 144.67673,279.28035 C 143.95366,279.18597 142.7012,278.80882 142.34737,278.83794 C 141.9944,278.86792 138.75172,279.07345 137.10102,279.07345 C 135.45192,279.07345 128.0815,279.28035 126.19429,279.25123 C 124.30807,279.221 118.79722,279.33956 117.23485,279.36979 C 115.67149,279.39804 112.6663,279.5166 110.78083,279.5166 C 108.89387,279.5166 104.94378,279.5166 103.85269,279.54485 C 102.76196,279.57397 93.212316,279.5166 91.236777,279.48638 C 89.261239,279.45714 82.395032,279.36979 80.302785,279.36979 C 78.209427,279.36979 74.288453,279.28035 74.288453,279.28035 C 74.288453,279.28035 74.966376,281.43107 75.203248,282.2584 C 75.43864,283.08276 76.499507,286.29682 76.499507,286.5031 C 76.499507,286.70999 75.114792,286.82768 74.7601,286.73824 C 74.408,286.64991 73.907237,286.32606 73.257813,285.38387 C 72.608512,284.43984 71.576884,282.67132 71.016904,281.28512 C 70.456923,279.8988 70.164041,279.13255 70.164041,279.13255 C 70.164041,279.13255 63.352487,279.10442 62.409563,279.04495 C 61.468243,278.98574 60.965753,278.95563 60.375547,279.16253 C 59.787314,279.36979 58.638114,279.60592 56.544757,279.69352 C 54.451523,279.78197 48.644455,279.78197 47.022621,279.75175 C 45.402761,279.72275 40.717381,279.48638 38.710876,279.33956 C 36.707086,279.19177 33.848459,278.89716 32.610802,278.69113 C 31.373022,278.48399 29.869131,277.86652 28.897585,277.51281 C 27.923695,277.158 26.568342,276.56779 25.30046,276.33339 C 24.0327,276.09627 22.293294,275.77168 21.380349,275.56639 C 20.466541,275.36024 19.17127,274.85861 18.255611,274.44618 C 17.341556,274.03326 16.812418,273.70842 16.487953,273.3847 C 16.164845,273.06011 14.748547,271.23212 13.59836,269.28767 C 12.447433,267.34137 11.093684,264.71715 10.119794,261.59241 C 9.1483713,258.46866 8.3521355,254.60592 8.2927941,254.33981 C 8.2353033,254.07505 7.9397066,253.89814 7.880612,253.69112 C 7.8213939,253.48682 7.3206314,250.03638 7.1728331,247.20613 C 7.0260217,244.37699 6.966557,241.22301 7.0260217,239.07044 C 7.0851164,236.91811 7.2321745,233.82335 7.4975453,231.73012 C 7.7636563,229.63701 7.9981844,228.98758 8.1167439,228.57515 C 8.2353033,228.16223 8.7644411,225.30286 9.2961697,223.44662 C 9.8269113,221.58866 10.652263,219.11322 11.388293,217.43328 C 12.126298,215.75235 13.362228,213.39375 14.100109,212.2728 C 14.83688,211.15185 15.897747,209.64956 16.340155,209.23738 C 16.780835,208.82421 17.843306,208.26522 18.315693,208.05796 C 18.78734,207.85106 18.727875,207.85106 19.464152,207.58569 L 19.464152,207.58569 z M 103.91215,263.95089 C 102.87954,264.01036 98.222655,264.39256 96.83794,264.51186 C 95.452608,264.62956 91.767519,265.21804 90.647558,265.42493 C 89.528584,265.63195 85.667568,266.57413 84.164541,266.95732 C 82.660403,267.34137 77.972555,268.66823 76.292243,269.16911 C 74.613289,269.67062 70.013528,270.96761 68.599944,271.35068 C 67.186114,271.73288 65.063641,272.44066 62.734152,272.91231 C 60.405773,273.3847 59.875031,273.59085 57.517166,273.73865 C 55.157698,273.88546 50.000548,273.94468 48.496656,273.94468 C 46.994369,273.94468 42.63185,273.85696 40.480262,273.82698 C 38.328673,273.79688 33.229261,273.68017 31.107651,273.64933 C 28.986289,273.62083 25.094307,273.47303 23.709592,273.41381 C 22.325247,273.35546 20.761151,273.20692 20.4072,273.06011 C 20.054112,272.91231 19.581725,272.49988 18.581064,270.64216 C 17.577935,268.78592 16.251698,266.22043 15.485564,264.59958 C 14.719308,262.97799 13.658441,260.38301 13.393071,259.7062 C 13.126959,259.02766 12.655436,257.72992 12.597945,257.61309 C 12.53848,257.49539 12.15455,257.11146 11.653047,256.43465 C 11.152161,255.75611 11.093684,255.90292 10.827573,254.6945 C 10.562942,253.48682 10.119794,251.30513 9.8861293,249.00402 C 9.6491338,246.70562 9.4722199,245.0538 9.4722199,242.10684 C 9.4722199,239.15803 9.5313146,235.91646 9.9437435,232.87858 C 10.356913,229.8423 10.71,227.95768 10.887778,227.45618 C 11.063828,226.95468 11.358438,226.45379 11.653047,226.06986 C 11.949261,225.68593 12.447433,225.21527 12.566979,224.9499 C 12.685292,224.6844 13.362228,222.82743 13.953051,221.41187 C 14.54153,219.99631 15.691717,217.43328 16.104023,216.5777 C 16.517192,215.72237 17.195732,214.36591 17.667255,213.51132 C 18.138656,212.65599 18.874933,211.15185 19.258617,210.59286 C 19.64267,210.03189 20.024873,209.44267 20.614093,209.35495 C 21.202572,209.26489 21.970556,209.14806 22.854261,209.08884 C 23.738831,209.03049 31.343043,208.70664 32.552448,208.67641 C 33.760002,208.64643 40.509501,208.55884 41.836602,208.52886 C 43.162839,208.49962 50.648245,208.52886 52.535449,208.58907 C 54.421667,208.64643 57.960315,208.76573 59.167252,208.88368 C 60.375547,209.00125 61.761866,209.26489 62.5866,209.4729 C 63.411951,209.6788 66.860538,210.59286 68.394655,211.03527 C 69.926922,211.47669 75.587179,213.09914 77.265516,213.57078 C 78.945705,214.04218 84.164541,215.54534 85.637589,215.89916 C 87.110638,216.25311 88.466114,216.6653 89.792228,216.90254 C 91.119205,217.13694 93.418592,217.55085 94.71633,217.72715 C 96.013329,217.9032 98.283476,218.16931 99.667081,218.28713 C 101.05278,218.40643 103.20437,218.46392 104.41267,218.5525 C 105.62133,218.64096 107.9507,218.75853 109.71922,218.81688 C 111.48786,218.87635 116.11489,219.02415 117.76559,219.08398 C 119.41666,219.14246 122.95457,219.14246 124.75048,219.20193 C 126.54824,219.26028 131.177,219.31876 133.03397,219.348 C 134.89021,219.37785 139.78335,219.43707 141.34572,219.40709 C 142.90735,219.37785 157.78909,218.87808 158.93829,218.87808 C 160.08749,218.87808 164.44741,218.72078 165.53838,218.68981 C 166.3097,218.67007 169.808,218.51216 171.06219,218.27664 C 172.00265,218.10059 177.28588,217.24169 180.88054,216.47296 C 182.78378,216.0667 186.50477,215.07542 187.29928,214.87025 C 188.09465,214.66323 192.20291,213.96064 192.20291,213.96064 C 192.20291,213.96064 193.66571,213.60002 194.28578,213.89463 C 194.90423,214.18998 195.50702,213.97347 195.83087,214.26906 C 196.15744,214.56269 196.41664,215.42776 196.71125,216.31159 C 197.00586,217.19616 197.96371,219.5771 198.169,220.72728 C 198.37515,221.87648 198.86222,223.18557 199.21592,225.69272 C 199.57,228.19727 199.80095,232.93002 199.977,235.11171 C 200.15305,237.29254 200.21831,241.84924 200.21831,243.52919 C 200.21831,245.21012 200.20635,248.62169 200.11777,250.24352 C 200.02869,251.86437 199.52176,255.00441 199.31647,256.65721 C 199.10859,258.30692 198.79251,259.51041 198.61548,260.36401 C 198.43881,261.21959 197.17685,264.86766 196.91148,265.57544 C 196.64537,266.28298 195.7983,268.52314 195.7983,268.52314 C 195.7983,268.52314 194.70746,268.83577 191.76482,268.2252 C 191.18411,268.10492 189.7308,268.09098 188.34547,267.67978 C 186.96088,267.26661 180.79899,266.04438 179.17716,265.60197 C 177.55557,265.16055 173.41635,264.30497 172.1787,264.09795 C 170.9419,263.89106 170.14567,263.71476 169.37855,263.65629 C 168.61155,263.59818 165.51679,263.45038 164.39671,263.39091 C 163.27773,263.33182 146.50373,263.33182 145.35355,263.33182 C 144.20509,263.33182 140.07796,263.24336 138.57493,263.24336 C 137.07178,263.24336 132.73937,263.2726 131.50084,263.2726 C 130.26294,263.2726 125.78285,263.33182 124.22134,263.36106 C 122.65898,263.39091 116.11489,263.56721 114.66935,263.62643 C 113.22628,263.68552 104.94378,263.89106 103.91215,263.95089 L 103.91215,263.95089 z "
   style="fill:none;fill-rule:nonzero;stroke:#1b1c20;stroke-width:1.31205113;stroke-miterlimit:4;stroke-dasharray:none"
   id="_155240664" /><path
   d="M 23.671964,273.52004 C 23.937335,273.72545 25.419142,275.18295 26.272006,275.44758 C 27.127336,275.71197 29.043656,276.15536 30.076024,276.30291 C 31.107651,276.45071 32.96463,276.77456 33.377059,276.8339 C 33.788254,276.89238 34.703049,277.01069 34.703049,277.01069 M 60.906288,279.01473 C 60.906288,279.01473 54.953149,278.71913 54.510001,278.66078 C 54.06932,278.60156 53.185491,278.42452 51.799172,278.18913 C 50.4131,277.95399 49.736164,277.86627 48.468404,277.68849 C 47.201385,277.51256 45.81667,277.3053 44.195206,277.18773 C 42.573373,277.06917 40.244994,276.92137 39.036452,276.92137 C 37.828775,276.92137 35.64622,277.01069 34.939428,277.01069 C 34.231649,277.01069 33.052223,277.04092 32.345432,277.01069 C 31.637653,276.97985 30.341395,276.92137 29.102134,276.92137 C 27.864354,276.92137 27.011367,276.71534 26.303588,276.47995 C 25.595069,276.24308 24.828936,276.09602 24.180499,275.889 C 23.532925,275.68371 22.972944,275.38824 22.441092,275.12373 C 21.911091,274.85836 21.46967,274.44593 21.173333,274.12135 C 20.879463,273.79663 20.761151,273.38445 20.701809,273.14894 M 63.501272,279.04471 C 63.618968,278.60156 64.001171,277.62915 64.237303,277.24621 C 64.473558,276.86215 64.975061,276.33314 65.298169,276.15536 C 65.622758,275.97906 66.772945,275.41736 67.450745,275.18295 C 68.129038,274.94781 70.102849,274.29838 70.958426,274.062 C 71.813016,273.82674 76.705413,272.32358 77.677945,272.02823 C 78.651835,271.73264 82.364066,270.58245 83.602586,270.25959 C 84.84123,269.93512 88.260825,268.93348 89.498358,268.69623 C 90.736262,268.46109 93.153221,267.9602 94.421721,267.78255 C 95.687753,267.6065 96.071683,267.54703 97.98714,267.36938 C 99.902596,267.19333 102.61417,266.95707 104.41267,266.89773 C 106.21055,266.83925 112.63706,266.63335 113.72779,266.60312 C 114.81863,266.57388 120.06424,266.57388 121.45142,266.57388 C 122.83429,266.57388 130.14463,266.57388 131.61842,266.57388 C 133.09319,266.57388 139.72413,266.6917 141.28564,266.72168 C 142.84973,266.75191 146.64104,266.50961 147.46652,266.62718 C 148.29014,266.74574 160.61675,267.01728 161.74707,267.22491 C 164.00698,267.6408 170.67888,268.80529 171.96403,269.0323 C 174.51855,269.48322 180.93902,271.84614 181.2815,272.18874 C 182.48412,273.39124 181.33578,273.79145 180.98109,274.29308 C 180.628,274.79483 173.30039,275.15297 172.2389,275.38824 M 142.74931,278.87988 C 142.74931,278.58527 169.31933,278.2296 179.47781,276.89916 C 187.89455,275.79623 191.35436,273.86547 191.79405,273.42553 C 193.11758,272.10201 194.0341,270.20049 194.18177,269.81817 C 194.70746,268.44135 195.12507,267.6313 195.53725,266.42707 C 195.94869,265.21779 196.77417,262.59456 197.09863,260.88537 C 197.4252,259.17521 198.01441,256.46265 198.21958,254.10405 C 198.42487,251.74631 198.69024,248.41554 198.75143,246.32132 C 198.8088,244.22895 198.8975,240.45651 198.83903,238.36241 C 198.77894,236.27017 198.60092,232.96753 198.39563,230.75672 C 198.19046,228.54567 197.6596,224.41879 197.15884,222.17862 C 196.65721,219.93857 195.97966,217.34297 195.39044,215.89892 C 194.80122,214.45338 194.06321,212.47883 193.5342,211.38872 C 193.00173,210.298 192.87367,210.09 190.89974,208.11619 C 188.59357,205.81001 183.34302,205.17009 182.99685,205.15208 C 162.79572,204.12563 164.60903,203.59316 142.78879,203.63597 M 172.21645,207.26332 C 172.95445,207.38188 177.31339,207.66872 179.64881,208.02341 C 181.1812,208.25621 182.19456,209.13486 182.07625,209.66573 C 181.95843,210.19745 178.54587,211.10879 177.89817,211.46275 C 177.24887,211.81657 174.09588,212.84882 172.2637,213.51453 C 171.35742,213.84368 167.45458,214.87 160.29981,215.42752 C 159.13062,215.5193 144.67673,215.80972 144.2928,215.80972 C 143.91048,215.80972 142.76054,215.86894 141.96418,215.89892 C 141.16967,215.92816 137.60252,215.89892 136.39324,215.92816 C 135.18556,215.95727 130.29218,215.95727 129.17222,215.95727 C 128.05226,215.95727 123.09966,215.95727 121.89284,215.95727 C 120.68344,215.95727 116.90927,215.92816 115.67149,215.92816 C 114.4347,215.92816 110.72062,215.86894 109.83691,215.86894 C 108.95136,215.86894 107.36074,215.7521 106.09199,215.72213 C 104.82522,215.69289 100.75817,215.39902 99.284138,215.27972 C 97.810102,215.16116 96.867179,215.07357 95.628658,214.92663 C 94.390014,214.77822 92.386964,214.45338 91.561613,214.27659 C 90.736262,214.10029 88.555434,213.59978 86.845267,213.15737 C 85.13584,212.71496 81.304186,211.59574 80.007188,211.18183 C 78.709449,210.76792 75.024484,209.59096 73.257813,209.11783 C 71.489291,208.64619 68.24587,207.704 66.891504,207.11306 C 65.535288,206.52458 64.79827,206.28845 64.267529,205.43312 C 63.73654,204.57927 63.471169,203.45832 63.471169,203.45832 M 62.88195,209.53174 C 63.088103,209.0601 63.352487,208.46927 63.589729,208.26497 C 63.824134,208.05771 64.12047,207.7615 64.621233,207.49773 C 65.122119,207.23236 66.12352,206.7617 66.12352,206.7617 M 111.71622,215.88794 C 111.8338,215.79862 111.16229,213.80568 110.98439,213.18735 C 110.80834,212.56815 110.36692,211.12335 109.95375,210.1502 C 109.54058,209.17705 109.18848,208.35158 108.80455,207.7615 C 108.42148,207.17326 107.59514,205.9055 107.59514,205.9055 M 64.685756,205.85554 C 65.157156,205.88478 67.043374,205.85554 67.604341,205.85554 C 68.163582,205.85554 72.020033,205.85554 69.63663,205.85554 M 111.22249,203.04601 C 111.28072,203.36986 111.45764,204.10589 111.5171,204.51906 C 111.57546,204.93124 111.66391,205.37538 111.66391,205.72945 C 111.66391,206.08316 111.66391,206.05318 111.66391,206.05318 C 111.66391,206.05318 111.87007,206.46548 112.13457,207.2616 C 112.39994,208.05771 112.75562,209.001 112.96091,210.00339 C 113.1662,211.00578 113.55013,212.30179 113.69867,213.06879 C 113.84474,213.83492 114.25618,215.86894 114.25618,215.86894 M 115.76007,206.02308 C 115.76007,206.02308 115.96709,207.32106 116.05641,208.05771 C 116.14413,208.79399 116.14413,208.79399 116.14413,208.79399 C 116.14413,208.79399 116.26269,209.76788 116.3208,210.47504 C 116.38026,211.18183 116.58555,213.42348 116.58555,213.83492 C 116.58555,214.24809 116.61467,215.81391 116.70411,215.93173 M 70.045481,203.3991 C 69.897683,203.66447 69.661428,204.07764 69.690667,204.37299 C 69.718919,204.66686 69.661428,204.96147 69.866717,205.19834 C 70.074597,205.43312 70.486162,205.87626 70.900071,205.93462 C 71.312254,205.99384 71.753921,206.02308 72.020033,205.87626 C 72.284663,205.72945 72.37312,205.46211 72.462441,205.3153 C 72.549047,205.16849 72.608512,204.96147 72.933101,204.90373 C 73.257813,204.84365 73.669995,204.87388 73.787691,204.63762 C 73.907237,204.40223 74.523968,203.19381 74.523968,203.19381 M 72.020033,205.87626 C 73.141967,205.9055 78.091115,206.02308 79.093503,205.99384 C 80.094905,205.96386 81.333425,205.96386 82.925033,205.93462 C 84.516641,205.9055 87.140617,205.84604 89.261239,205.87626 C 91.383836,205.9055 96.807714,205.84604 98.93105,205.87626 C 101.05278,205.9055 105.06036,205.9055 106.00526,205.9055 C 106.94831,205.9055 108.45047,205.96386 109.59893,205.96386 C 110.74986,205.96386 113.34386,205.96386 114.25618,205.99384 C 115.1716,206.02308 116.85191,206.08316 118.26549,206.08316 C 119.68031,206.08316 122.83429,206.13991 124.4861,206.17087 C 126.13507,206.20073 131.05942,206.31769 132.73937,206.37703 C 134.41931,206.43526 137.33715,206.49374 139.01635,206.52458 C 140.69815,206.5548 143.0834,206.73085 144.73583,206.7617 C 146.38517,206.78921 161.03757,206.78921 162.77771,206.87865 C 164.51539,206.96526 172.21645,207.26332 172.21645,207.26332"
   style="fill:none;fill-rule:nonzero;stroke:#1b1c20;stroke-width:1.31205113;stroke-miterlimit:4;stroke-dasharray:none"
   id="_155245808" /><path
   d="M 145.08447,215.75531 C 145.05524,215.10774 144.7647,211.97782 144.67636,211.21095 C 144.58704,210.44469 144.35251,208.52849 144.29243,208.02847 C 144.23396,207.5261 144.17387,206.73073 144.17387,206.73073 M 165.25364,218.75298 C 165.31113,219.10705 165.28288,219.43164 165.48916,220.16854 C 165.69679,220.90555 165.63251,221.85033 165.83854,223.26416 C 166.04568,224.67972 166.28021,226.29958 166.36953,227.50886 C 166.45861,228.71851 166.60468,232.78543 166.66488,234.25922 C 166.72324,235.734 166.78171,242.01296 166.75248,244.13531 C 166.72324,246.25766 166.69338,250.444 166.51708,252.92117 C 166.34029,255.3966 166.13315,257.40138 165.92786,258.63817 C 165.72183,259.87842 165.42969,262.20631 165.39971,262.38408 C 165.36961,262.56013 165.31113,263.35625 165.31113,263.35625 M 171.96971,218.25493 C 172.175,218.63812 172.43864,219.64224 172.67379,220.2322 C 172.91103,220.82228 173.08116,222.29533 173.40747,223.44625 C 173.7312,224.59471 173.78795,225.80412 173.96326,226.83562 C 174.14178,227.86799 174.2269,229.40112 174.34719,230.40289 C 174.46316,231.40429 174.31437,232.67279 174.37285,233.40907 C 174.43293,234.14671 174.54902,236.74169 174.54902,237.53793 C 174.54902,238.3333 174.63822,242.22405 174.60923,243.34425 C 174.57999,244.46495 174.49067,247.17677 174.43293,248.17891 C 174.37285,249.1813 174.46316,251.36312 174.31635,252.57079 C 174.16855,253.78007 173.78795,256.55185 173.63941,257.31811 C 173.49235,258.08424 173.40747,259.46969 173.14037,260.17747 C 172.87759,260.88525 172.85082,262.21149 172.52697,262.77221 C 172.20251,263.33145 172.08827,264.09758 172.08827,264.09758 M 191.91903,213.99037 C 192.09607,214.34346 192.32788,215.16104 192.56241,215.75198 C 192.80027,216.34046 193.00383,217.34285 193.27019,218.13797 C 193.53309,218.9352 193.70988,219.78979 193.91603,220.70446 C 194.12231,221.61753 194.2991,222.41389 194.4754,223.26922 C 194.65379,224.12307 194.82984,225.39157 195.00688,226.48167 C 195.18293,227.57264 195.4483,230.16639 195.53762,231.08119 C 195.6262,231.99438 195.83223,234.67683 195.86246,236.12237 C 195.89157,237.56704 195.9783,240.78024 195.9783,241.75339 C 195.9783,242.7258 195.89157,245.64339 195.86246,246.67502 C 195.83223,247.70764 195.77301,249.56461 195.65618,250.83139 C 195.53762,252.10013 195.18293,255.40191 195.03772,256.43428 C 194.88832,257.46492 194.44616,259.64661 194.18313,260.94435 C 193.91603,262.2406 193.23749,264.51149 192.94288,265.30699 C 192.64827,266.1031 192.09002,267.63561 191.76444,268.22483 M 89.883645,216.94498 C 89.766073,217.12202 88.878913,220.40985 88.672637,221.11689 C 88.465744,221.82368 87.818046,224.94953 87.670988,225.68556 C 87.523437,226.42319 87.05179,229.48884 86.962469,230.31419 C 86.875739,231.13954 86.58113,234.47154 86.491809,235.88611 C 86.404216,237.30068 86.404216,241.81186 86.404216,242.7258 C 86.404216,243.6396 86.726337,248.88607 86.785432,250.21293 C 86.844897,251.53917 87.463972,255.99113 87.641009,256.90494 C 87.818046,257.81887 88.318562,260.29505 88.584056,261.1204 C 88.849674,261.94599 89.760028,265.38409 89.847621,265.59136 M 116.76209,266.74228 C 116.64625,266.80138 116.6745,268.10689 116.61429,269.05018 C 116.55693,269.9941 116.32043,272.44029 116.26232,273.03124 C 116.20211,273.62046 115.81991,276.45059 115.81991,276.45059 M 172.23853,275.38812 C 171.55987,275.41723 166.99033,275.56602 165.98721,275.6245 C 164.98556,275.68359 162.33345,275.74207 161.21325,275.77131 C 160.09316,275.80129 144.85241,275.91985 143.79155,275.94909 C 142.73093,275.97894 138.95862,276.03841 137.74896,276.0959 C 136.54067,276.15524 130.55718,276.24295 129.29041,276.27281 C 128.02265,276.30279 122.9542,276.36225 121.56862,276.39051 C 120.18156,276.42061 115.84915,276.51005 114.81826,276.51005 C 113.78688,276.51005 108.42111,276.65686 107.24255,276.62664 C 106.06238,276.59666 101.25832,276.59666 99.519159,276.59666 C 97.780617,276.59666 92.593611,276.59666 90.824965,276.59666 C 89.05558,276.59666 83.660694,276.53917 82.100052,276.53917 C 80.53867,276.53917 76.174301,276.45059 74.847323,276.45059 C 73.52195,276.45059 64.644057,276.80972 64.644057,276.80972 M 74.288083,279.27998 C 74.170511,278.89679 74.023699,278.39528 73.875901,278.24847 C 73.728103,278.09993 73.13987,277.8944 72.992072,277.80705 C 72.843287,277.71761 72.667236,277.54156 72.579643,277.30518 C 72.491309,277.06905 72.491309,276.80368 72.254067,276.68598 C 72.019662,276.56742 71.340382,276.51005 71.135093,276.53917 C 70.927953,276.56742 70.485792,276.74446 70.280503,276.95147 C 70.074227,277.15763 69.807869,277.48222 69.778013,277.71761 C 69.748774,277.95386 69.807869,278.21923 69.897313,278.45462 C 69.984906,278.69076 70.133445,279.13218 70.133445,279.13218 M 111.45727,266.83062 C 111.57509,266.89008 111.30947,268.49094 111.13354,269.07942 C 110.95675,269.67025 110.24799,271.79198 109.86566,272.64731 C 109.48173,273.50289 108.78172,274.93029 108.4501,275.41723 C 108.00794,276.06592 107.59477,276.62664 107.59477,276.62664 M 59.256203,208.88331 C 59.079906,209.14769 58.047538,210.56325 57.840645,210.8871 C 57.635356,211.21095 56.043748,213.51095 55.630579,214.24797 C 55.217409,214.984 53.832818,217.37271 53.449751,218.22828 C 53.065821,219.08361 51.798802,222.26683 51.534418,223.23936 C 51.26806,224.21251 50.561145,227.01241 50.354992,228.72258 C 50.146989,230.43275 49.707295,234.91296 49.646473,236.53381 C 49.588735,238.15527 49.530381,243.40347 49.646473,245.61415 C 49.765773,247.82422 49.971062,251.50993 50.325753,253.60316 C 50.678841,255.69652 51.179603,258.52665 51.975099,260.67898 C 52.771951,262.83155 53.478003,264.74602 54.805227,266.89761 C 56.132205,269.05018 58.166097,271.96865 58.431591,272.3812 C 58.695975,272.79511 59.256203,273.56124 59.256203,273.56124 M 62.88158,209.53162 C 62.735755,209.88644 60.729991,214.30644 60.375177,215.10256 C 60.022213,215.89879 58.431591,220.79218 58.166097,221.91312 C 57.900727,223.03235 57.252166,226.42319 57.075128,227.60262 C 56.898338,228.78279 56.45593,232.76137 56.396835,233.82298 C 56.339098,234.88372 56.280003,239.24711 56.249777,240.57396 C 56.220538,241.89946 56.309119,246.11603 56.368337,247.50037 C 56.425827,248.88607 56.721424,252.42398 56.957556,253.89777 C 57.191961,255.37168 57.988443,259.88286 58.342148,261.23822 C 58.695975,262.59443 60.051328,266.54452 60.464497,267.48856 C 60.87779,268.43173 62.97016,272.8542 62.97016,272.8542 M 62.97016,272.8542 C 63.05763,273.17731 63.234544,273.76727 63.56012,274.15046 C 63.884955,274.53513 64.737818,275.09351 65.09251,275.27042 C 65.445597,275.44746 66.12315,275.74207 66.12315,275.74207 M 16.516822,257.72955 C 15.280645,257.70031 12.508131,257.52426 12.508131,257.52426 M 16.635381,255.63705 C 16.635381,255.63705 20.113083,255.72551 21.14286,255.78485 C 22.175351,255.84333 26.479515,255.99113 27.923325,256.0802 C 29.367135,256.16792 32.816462,256.34483 34.762761,256.43428 C 36.706716,256.52088 42.16008,256.81722 43.546152,256.87496 C 44.931854,256.93405 50.889188,257.17129 50.889188,257.17129 M 51.098795,225.30249 C 50.567313,225.33247 45.460869,225.62634 44.547801,225.65632 C 43.633869,225.68556 35.322125,226.09873 34.02673,226.15708 C 32.728128,226.2163 27.953304,226.45342 26.597828,226.5119 C 25.241735,226.57099 16.635381,227.04264 16.635381,227.04264 M 12.508131,225.00862 C 12.508131,225.00862 15.244621,225.00862 16.51164,225.00862"
   style="fill:none;fill-rule:nonzero;stroke:#1b1c20;stroke-width:1.31205113;stroke-miterlimit:4;stroke-dasharray:none"
   id="_155245928" /><path
   d="M 20.643332,209.29438 C 20.761151,208.88318 21.08574,208.32222 21.437717,208.05746 C 21.793518,207.79135 22.501297,207.26135 22.972944,207.05446 C 23.444221,206.84818 24.238976,206.49349 24.828936,206.31744 M 23.612746,208.95425 C 24.055894,208.68887 25.212866,207.29059 26.008239,207.05446 C 26.803487,206.81894 27.805876,206.61304 28.807524,206.37678 C 29.809913,206.13966 31.816417,205.81655 32.403909,205.69898 C 32.993129,205.58042 34.466918,205.31505 34.466918,205.31505 M 27.245895,205.55118 C 27.953674,205.5212 29.015404,205.5212 29.781414,205.49196 C 30.547671,205.46186 32.021706,205.40437 32.78784,205.37513 C 33.55385,205.34515 34.496033,205.28581 35.204799,205.31505 C 35.911714,205.34515 37.385626,205.46186 38.564805,205.46186 C 39.744231,205.46186 41.688803,205.37513 43.04502,205.31505 C 44.401359,205.25756 47.613567,204.8434 48.704536,204.72583 C 49.794642,204.60727 52.123021,204.28342 52.772322,204.13587 C 53.420019,203.98881 59.403384,203.22182 59.403384,203.22182 M 23.56204,209.05985 C 23.413378,209.35446 22.117367,211.71405 21.851873,212.21321 C 21.588229,212.71471 20.378948,215.16091 20.084338,215.80947 C 19.788001,216.4589 19.080962,218.16882 18.78734,218.87586 C 18.491743,219.58364 17.136267,223.14979 16.959476,223.53372 C 16.780835,223.91679 16.459454,225.03774 16.459454,225.03774 C 16.459454,225.03774 16.604785,225.71628 16.604785,226.15696 C 16.604785,226.60011 16.635751,227.15935 16.547048,227.89711 C 16.459454,228.63314 16.014579,232.31786 15.957088,233.0566 C 15.897747,233.79288 15.573898,236.65225 15.514803,239.18776 C 15.456325,241.72242 15.544659,244.78868 15.691717,246.73436 C 15.838528,248.67967 16.251698,252.54143 16.37038,253.42625 C 16.487953,254.3118 16.664003,255.51936 16.635751,256.02098 C 16.604785,256.52076 16.517192,257.58335 16.517192,257.58335 C 16.517192,257.58335 16.780835,258.55576 17.165506,259.50041 C 17.548696,260.44272 18.610303,263.18451 19.199522,264.59909 C 19.788001,266.01366 21.26179,269.16862 21.64572,269.90465 C 22.027923,270.64167 23.709592,273.3842 23.709592,273.3842 M 11.829961,239.95476 C 12.095332,239.65916 12.360826,239.51161 12.597945,239.51161 C 12.83309,239.51161 13.09439,239.65164 13.333976,239.98301 C 13.570108,240.30847 13.774657,240.89769 13.774657,241.31085 C 13.774657,241.72242 13.716179,242.19394 13.393071,242.578 C 13.068605,242.96193 12.744756,243.13872 12.479386,243.10775 C 12.213028,243.0795 11.829961,242.63709 11.711402,242.40096 C 11.59457,242.16384 11.535351,241.60472 11.535351,241.39956 C 11.535351,241.19229 11.565331,240.24838 11.829961,239.95476 L 11.829961,239.95476 z M 10.622407,253.63215 C 10.622407,253.63215 10.768231,254.01547 10.975371,254.25234 C 11.182387,254.48773 11.59457,254.98936 12.15455,255.19391 C 12.714531,255.40179 13.774657,255.43078 14.306139,255.34331 C 14.83688,255.253 14.719308,254.75322 14.719308,254.33931 C 14.719308,253.92775 14.482436,253.13164 14.424698,252.54143 C 14.365603,251.95221 14.011529,249.97766 13.863977,248.53188 C 13.716179,247.08807 13.629326,245.99636 13.570108,245.14275 C 13.51089,244.28718 13.453276,244.16948 13.097721,243.93409 C 12.744756,243.69796 12.360826,243.40335 11.949261,242.81413 C 11.535351,242.22392 11.565331,241.69318 11.535351,241.1332 C 11.506113,240.57384 11.85994,239.92454 12.007739,239.62919 C 12.15455,239.33458 12.714531,238.92239 13.156198,238.62778 C 13.59836,238.33317 13.51089,238.06682 13.540129,237.77295 C 13.570108,237.47834 13.716179,235.56128 13.774657,234.8836 C 13.833751,234.20506 14.011529,232.67267 14.130088,231.9359 C 14.247661,231.19888 14.482436,229.75409 14.659226,228.72246 C 14.83688,227.69021 14.659226,227.69021 14.512415,227.45569 C 14.365603,227.22029 13.953051,227.36636 13.481774,227.33713 C 13.00914,227.3069 12.095332,227.45569 11.59457,227.65999 C 11.093684,227.86787 10.975371,228.07414 10.622407,228.51556 M 65.633861,210.27456 C 65.633861,210.27456 64.738189,213.57029 64.531912,214.21799 C 64.326747,214.8663 62.852711,219.64211 62.645695,220.37975 C 62.439542,221.11677 61.554973,225.03774 61.320444,226.03914 C 61.084313,227.04252 60.612666,230.07793 60.405773,232.02423 C 60.199496,233.97066 59.817293,237.83142 59.846532,240.07233 C 59.875031,242.3125 59.875031,247.14654 60.494106,251.39223 C 61.113551,255.63693 61.878821,259.7342 63.058,263.56672 C 64.237303,267.39998 64.856748,269.05006 64.944095,269.43399 C 65.035142,269.81792 65.646815,272.1996 65.646815,272.1996 M 144.97134,266.63039 C 144.97134,266.89576 144.85278,269.75858 144.79431,270.70002 C 144.73583,271.6448 144.61752,273.08959 144.46885,273.91495 C 144.32365,274.73956 144.17424,275.91972 144.17424,275.91972 M 114.31701,266.57364 C 114.25618,267.01604 113.84474,269.10916 113.63674,269.93488 C 113.43157,270.76097 112.93167,273.14869 112.60782,274.00254 C 112.28311,274.85812 111.69315,276.53904 111.69315,276.53904 C 111.69315,276.53904 111.80999,276.9796 111.72301,277.42287 C 111.63369,277.86602 111.28072,279.48588 111.28072,279.48588 M 150.32243,266.75672 C 150.32243,266.75672 154.83016,271.68785 156.73439,272.98991 C 158.63788,274.29283 159.53972,274.79359 159.53972,274.79359 C 159.53972,274.79359 159.84013,275.99609 159.33949,276.89793 C 158.83774,277.79977 155.93309,279.49711 155.93309,279.49711 M 150.02178,215.69609 C 150.02178,215.69609 154.32927,210.96174 156.1332,209.8588 C 157.9359,208.75673 159.53972,207.45368 159.53972,207.45368 C 159.53972,207.45368 159.63928,206.8525 159.13839,205.65 C 158.63788,204.44751 156.53083,202.99247 156.53083,202.99247 M 197.59175,224.50256 L 199.21592,225.69222 M 197.69908,257.76545 L 199.31647,256.65671"
   style="fill:none;fill-rule:nonzero;stroke:#1b1c20;stroke-width:1.31205113;stroke-miterlimit:4;stroke-dasharray:none"
   id="_155246048" /><path
   style="fill:none;fill-rule:nonzero;stroke:#1b1c20;stroke-width:0.21762627;stroke-dasharray:0.21713278, 0.21713278"
   d="M 156.42966,123.67004 C 155.84291,123.67004 154.90332,123.67004 154.49262,124.3735 C 154.0813,125.07955 153.55401,126.60392 153.55401,127.36771 C 153.55401,128.13125 153.72907,129.71682 153.90599,130.18661 C 154.0813,130.65653 154.4334,131.24316 155.02163,131.30226 C 155.6074,131.36073 156.78176,131.36073 157.13374,131.47855 C 157.48683,131.59514 158.19115,131.94823 158.60173,131.82967 C 159.01243,131.71209 159.13,131.41909 159.24684,130.30357 C 159.36355,129.18867 159.30531,127.42779 159.07066,126.89952 C 158.83712,126.37038 158.42568,124.66811 157.95675,124.2558 C 157.48683,123.84609 157.01617,123.67004 156.42966,123.67004 L 156.42966,123.67004 z "
   id="path1959" /><path
   style="fill:none;fill-rule:nonzero;stroke:#1b1c20;stroke-width:0.21762627;stroke-dasharray:0.21713278, 0.21713278"
   d="M 153.70662,134.18235 C 152.76801,134.12313 152.18052,134.24083 151.71233,134.654 C 151.24167,135.06371 150.06668,136.70763 149.47919,137.41208 C 148.8933,138.11615 147.54301,139.76007 147.19005,140.46551 C 146.83868,141.16983 145.01872,143.98713 144.60814,144.86824 C 144.1967,145.74862 142.49504,149.74189 142.31899,150.56391 C 142.14134,151.38655 141.20249,153.96932 141.37854,155.37809 C 141.55545,156.78686 141.96603,156.96291 141.96603,156.96291 C 141.96603,156.96291 136.91831,155.1427 135.91999,154.90817 C 134.92204,154.67302 131.98791,154.02705 131.10581,153.91022 C 130.22531,153.79252 127.76024,153.49964 126.99756,153.61721 C 126.23377,153.73417 124.82537,153.55713 124.5315,153.4403 C 124.23788,153.32273 123.82631,153.851 123.59289,154.49697 C 123.35738,155.1427 123.12297,156.08241 123.29902,157.08048 C 123.47507,158.07942 123.76796,159.54642 123.76796,159.54642 C 123.76796,159.54568 125.47035,159.36963 126.23377,159.42872 C 126.99756,159.48794 129.69803,159.78082 130.63762,159.95786 C 131.57573,160.13317 132.57368,160.89671 134.2176,161.60104 C 135.8609,162.30549 137.73848,162.89199 138.73729,162.83351 C 139.73548,162.77516 141.78924,162.59911 142.72883,162.36359 C 143.66929,162.12919 144.72485,161.60104 145.01872,161.1896 C 145.31333,160.77914 146.13362,160.07469 146.25218,159.60576 C 146.36901,159.1351 147.19005,157.54942 147.42544,157.19806 C 147.66058,156.84497 149.06935,154.02705 149.36224,153.26351 C 149.65783,152.49972 151.41673,148.27402 151.82817,147.39254 C 152.23962,146.51142 154.70555,140.99279 155.17375,139.81855 C 155.64441,138.64529 157.7464,134.92615 157.64067,134.3584 C 157.53581,133.79065 154.6472,134.24083 153.70662,134.18235 L 153.70662,134.18235 z "
   id="path1957" /><path
   style="fill:none;fill-rule:nonzero;stroke:#1b1c20;stroke-width:0.21762627;stroke-dasharray:0.21713278, 0.21713278"
   d="M 91.42171,160.42174 L 91.309196,160.383 C 92.745974,160.98949 103.72401,163.86613 104.70839,164.0935 C 105.69276,164.32112 107.88815,164.51013 110.31128,163.14712 C 111.40891,162.52941 112.869,161.61399 113.33892,161.25412 C 114.62642,160.27048 114.85231,157.73423 114.78372,157.04174 C 114.47517,153.94797 115.2207,151.37199 115.72936,149.55461 C 116.23777,147.73612 117.71415,144.75228 119.02163,142.64461 C 120.32986,140.53583 120.46618,139.41587 120.72982,138.79914 C 121.07946,137.98489 122.39891,134.76133 122.12737,133.71243 C 121.96329,133.07867 119.66921,132.50919 118.7491,132.50919 C 117.51404,132.50919 116.08405,134.31547 115.72158,135.18819 C 115.35727,136.0608 114.61174,137.64895 112.57612,140.70238 C 110.54136,143.75507 107.32891,145.79686 106.67442,149.86625 C 106.25015,152.51193 107.30756,156.69816 107.74997,157.0642 L 107.38233,157.65342 C 104.41624,156.37603 100.74608,154.89694 99.302273,154.27947 C 96.758982,153.18776 93.239951,152.97988 91.961952,153.33457 C 91.443177,153.4783 89.3191,154.31216 88.886192,154.47797 C 88.002363,154.81465 87.81928,155.51466 87.965351,156.17013 C 88.110435,156.82362 88.121662,157.84834 88.110435,158.13185 C 88.090696,158.60411 88.43157,159.39961 89.111837,159.66498 C 89.794078,159.92961 90.740456,160.23273 91.42171,160.42174 L 91.42171,160.42174 z "
   id="path1955" /><path
   style="fill:none;fill-rule:nonzero;stroke:#1b1c20;stroke-width:0.21762627;stroke-dasharray:0.21713278, 0.21713278"
   d="M 119.71991,131.69334 C 118.04749,131.69334 117.6078,130.5835 117.31652,128.69395 C 117.02537,126.80403 117.89797,124.76767 118.91492,124.11319 C 119.93297,123.45945 121.75023,123.53248 122.62135,125.20391 C 123.49395,126.87546 123.78424,129.85672 123.63916,130.65653 C 123.49395,131.4561 123.43732,132.14833 122.12737,132.00325 L 119.71991,131.69334 z "
   id="_155362224" /><path
   d="M 142.58251,168.26492 C 142.58251,168.26492 142.72858,166.18118 142.96472,164.83015 C 143.1985,163.47985 143.786,161.54305 144.25567,160.36869 C 144.7246,159.1937 145.78127,157.49131 146.54482,156.6704 C 147.30934,155.84838 148.71614,154.20446 150.30257,153.44067 C 151.88739,152.67713 154.11781,151.56149 156.69984,151.38692 C 159.28434,151.21013 161.45567,151.21013 163.56951,151.85437 C 165.68347,152.50009 167.20981,152.9082 168.3236,153.73109 C 169.43949,154.55138 170.18404,154.49537 172.1613,157.39175 C 173.46435,159.30104 173.79769,159.97279 174.20914,161.02922 C 174.62045,162.08576 175.20277,163.84651 175.3798,165.7843 C 175.55314,167.72221 175.61433,169.01403 175.61433,169.01403 L 175.90721,169.60325 C 182.23626,168.92841 188.58037,168.38952 194.90658,167.69704 C 194.90658,167.69704 199.24603,167.20677 199.7157,166.7952 C 201.07648,165.60393 204.40281,156.36283 202.33548,154.85006 C 200.71809,153.66829 199.63415,153.82041 199.57666,153.46818 C 199.51818,153.11608 199.57666,149.33156 199.57666,149.33156 C 199.57666,149.33156 199.31536,144.14887 198.9297,140.75876 C 198.89294,140.42887 198.73663,139.62831 198.51333,138.9378 C 197.87081,136.94931 197.12368,135.93397 196.71211,135.22965 C 196.30067,134.52557 194.00474,132.22347 191.41777,129.95505 C 190.13447,128.8299 179.57663,121.8022 175.76965,119.89797 C 175.43384,119.73056 173.48853,119.38253 173.60709,118.85426 C 173.72466,118.32512 173.84149,117.73861 172.90264,117.56158 C 171.96292,117.38565 167.29037,116.70945 166.29329,116.59114 C 165.29435,116.47431 154.22786,115.08787 147.42519,114.80794 C 145.30691,114.72121 132.51434,114.04514 130.40038,113.98666 C 128.28901,113.92756 118.30842,113.75151 115.02207,113.81061 C 111.73337,113.86908 102.57629,114.28053 100.28542,114.57341 C 97.996516,114.86629 93.109301,115.45465 91.172378,115.92444 C 89.235331,116.39338 84.555256,118.09577 84.555256,118.09577 M 7.0429235,162.86238 C 7.8357049,162.86238 19.89262,162.86238 20.684537,162.86238 C 21.476332,162.86238 22.35683,162.86238 22.592222,162.77553 C 22.826626,162.68781 23.150475,161.92427 23.208953,161.63065 C 23.267431,161.33777 23.473337,160.95618 23.150475,160.80863 C 22.826626,160.66157 21.213675,160.77951 20.508364,160.77951 C 19.804163,160.77951 14.666875,160.75101 13.845595,160.75101 C 13.023575,160.75101 7.6304158,160.77951 7.0429235,160.75101 M 9.6729444,154.41987 L 9.861085,153.36788 C 9.861085,153.36788 10.142864,152.81715 10.274254,152.46579 C 10.50027,151.86461 10.586876,151.56149 11.175108,150.26967 C 11.658969,149.20436 12.348489,147.86283 12.583881,147.45138 C 12.818409,147.04167 13.170633,146.57101 13.522733,146.21891 C 13.875821,145.86582 14.284549,145.57294 15.694061,144.69158 C 17.103574,143.8112 21.858658,142.46115 24.089328,141.69835 C 30.415541,139.53578 37.54132,138.00278 44.107366,136.76722 C 46.279681,136.35578 48.80311,135.59223 49.389862,135.59223 C 49.978094,135.59223 51.974359,135.8861 52.913211,136.00442 C 53.852804,136.12051 57.862975,136.54996 58.743473,136.60844 M 12.754133,153.29312 C 12.754133,153.29312 13.4344,151.44465 13.698784,150.91552 C 13.963414,150.38724 14.373993,149.36067 14.902267,148.80168 C 15.431405,148.24515 15.89935,147.42313 16.340031,147.12926 M 15.694061,144.69158 C 15.694061,144.69158 16.722974,145.35309 16.810691,145.48535 C 17.300227,146.22841 16.340031,147.12926 16.340031,147.12926 M 16.340031,147.12926 C 16.340031,147.12926 17.690326,147.18774 18.336296,147.18774 C 18.982883,147.18774 20.3333,147.24708 20.860588,147.3063 C 21.388739,147.36379 23.355764,147.48062 23.355764,147.48062 C 23.355764,147.48062 22.533744,148.30252 22.269113,148.62637 C 22.00547,148.94948 20.915364,150.65607 20.799519,150.89047 M 32.894185,156.11103 C 32.894185,156.11103 32.425253,155.84838 31.926094,155.6421 C 31.426935,155.43595 28.08161,153.91059 27.463892,153.64608 C 26.848148,153.38145 24.266118,152.14972 23.473337,151.79601 C 22.680555,151.44465 21.711847,151.03321 21.388739,150.94549 C 21.066617,150.85716 20.948304,150.74021 20.71353,150.97473 C 20.479125,151.21013 20.41892,151.73754 19.950974,151.73754 C 19.437258,151.73754 18.394403,152.23645 17.690326,152.38425 C 16.986001,152.53032 14.609384,152.971 13.991666,153.11781 C 13.374935,153.26388 12.906002,153.23538 12.583881,153.41143 C 12.261019,153.58773 11.850317,153.93971 11.204347,154.11576 C 10.558747,154.29107 9.5311912,154.35201 9.4136188,154.43961 C 9.1129639,154.66463 8.7686357,155.02537 8.5915985,155.37846 C 8.4146846,155.73056 8.3562068,156.31731 8.1218021,156.49336 C 7.8865338,156.6704 7.0662406,156.78723 7.0662406,156.78723 L 7.0051721,162.82883 C 7.0051721,162.82883 8.1811435,163.18697 8.3562068,163.42138 C 8.5325038,163.65689 9.589669,166.47407 9.6481468,166.70933 C 9.7065013,166.94473 9.1782271,167.06168 9.0615182,167.3553 C 8.943699,167.64917 9.4136188,168.76395 9.7065013,169.05856 C 10.001111,169.35219 11.819351,169.93906 12.406967,170.11437 C 12.995446,170.29104 14.227181,170.64339 16.163981,170.7026 C 18.101521,170.75997 23.73698,170.75997 24.911348,170.81845 C 26.084605,170.87693 28.668115,170.87693 28.90363,170.87693 C 29.138035,170.87693 29.196513,169.11704 29.255607,168.11909 C 29.314085,167.12004 29.665445,163.12849 30.311416,161.4245 C 30.958002,159.72309 31.779282,157.25616 33.188795,155.84838 C 34.597197,154.43961 36.945562,152.55956 38.999318,151.97268 C 41.054677,151.38692 43.16691,150.62263 45.868239,150.91552 C 48.568582,151.21013 51.151351,151.50301 53.441239,152.91252 C 55.730386,154.32203 56.846029,155.26089 57.550353,156.31731 C 58.254801,157.37546 59.312213,158.66568 59.897978,160.66157 C 60.484483,162.65857 61.013621,164.71406 61.190658,166.53254 C 61.364981,168.35424 61.424323,171.52277 61.424323,171.52277 L 62.461749,171.87685 M 23.355764,147.48062 C 23.355764,147.48062 26.113844,147.18774 27.171009,147.12926 C 28.227434,147.07078 30.811191,146.8064 31.690702,146.74706 C 32.572064,146.68883 35.066377,146.54177 35.066377,146.54177 M 23.355764,147.48062 C 23.355764,147.48062 24.706059,146.57101 25.087398,146.33747 C 25.468614,146.10208 27.670908,145.13226 28.638876,144.81014 C 29.606968,144.48629 34.303574,142.90184 35.272406,142.63807 C 36.241485,142.37344 42.316638,140.788 43.285469,140.58271 C 44.254178,140.37816 48.216481,139.43758 49.508421,139.14396 C 50.799374,138.85108 54.732438,137.96971 55.673018,137.70607 C 56.611624,137.4423 58.400872,136.82495 59.164415,136.47187 C 59.927217,136.12051 62.305438,134.77021 63.097479,134.2412 C 63.891001,133.7128 66.737414,131.65905 67.676267,131.01345 C 68.616106,130.36748 71.170377,128.63485 72.049148,128.07759 C 72.93051,127.51933 77.657096,124.43642 78.478376,123.96675 C 79.300273,123.49781 82.265369,121.79517 83.056423,121.41383 C 83.849205,121.03089 86.960002,119.53551 87.811261,119.21067 C 88.663384,118.88855 92.508855,117.596 93.417481,117.36246 C 94.328082,117.12706 98.584008,116.36426 99.787244,116.24558 C 100.99085,116.12973 104.54332,115.74753 106.09791,115.63082 C 107.6535,115.51226 111.44049,115.36545 112.7898,115.3071 C 114.13997,115.24862 118.89592,115.19014 120.18761,115.19014 C 121.47782,115.19014 128.37598,115.24862 130.10749,115.3071 C 131.83913,115.36545 138.97243,115.71829 140.67384,115.74753 C 142.37722,115.77603 148.58118,115.94246 150.01993,116.09025 C 151.45856,116.23633 156.27989,116.57041 157.43427,116.69144 C 159.33776,116.89155 162.00455,117.18986 163.44589,117.49298 C 165.34913,117.89394 173.09411,120.79648 174.16608,121.30144 C 175.8702,122.10274 184.08572,127.2135 189.79693,132.62467 C 190.0185,132.83502 190.99955,133.72674 191.79813,134.56492 C 192.03623,134.81401 192.38562,134.77021 192.79706,135.27011 C 193.2069,135.76828 193.9697,137.14769 194.29343,137.91062 C 194.6153,138.67416 194.90991,139.70307 195.05524,140.08355 C 195.20279,140.46588 195.34899,141.1702 195.34899,141.40473 C 195.34899,141.63913 195.52491,142.40342 195.58339,142.87161 C 195.6436,143.34326 195.84876,144.31122 195.99483,145.3093 C 196.14164,146.30724 196.10833,148.30252 196.13831,148.86016 C 196.16755,149.41915 196.10907,153.46818 196.10907,153.46818"
   style="fill:none;fill-rule:nonzero;stroke:#1b1c20;stroke-width:0.26771486"
   id="_155354392" /><path
   d="M 199.41455,153.46781 C 199.41455,153.46781 197.60384,153.58637 196.10846,153.46781 C 194.61061,153.35024 191.11477,153.01788 190.19665,152.96619 C 188.39371,152.86663 187.39304,152.22682 187.19195,151.1762 C 187.07265,150.55095 187.10275,148.82783 187.07425,147.59536 C 187.04501,146.36103 187.01516,143.5763 187.13174,142.54838 C 187.2503,141.5202 188.79392,141.04177 189.39511,140.74112 C 189.88477,140.49635 191.41617,140.06085 191.89978,139.93982 C 192.70194,139.73873 198.51271,138.93743 198.51271,138.93743 M 195.7075,133.92722 C 195.7075,133.92722 192.26669,134.59453 191.85586,134.68225 C 191.44615,134.76984 190.90344,136.22661 190.69815,136.43177 C 190.492,136.63805 187.59216,139.03798 186.38967,140.54089 C 186.16809,140.81748 185.68793,141.54266 185.68793,142.44438 C 185.68793,142.80166 185.78848,150.26066 185.78848,150.26066 C 185.78848,150.26066 185.68793,152.16489 186.69032,152.96619 C 187.19355,153.36912 189.29456,154.16881 191.8001,154.56976 C 193.05601,154.77086 195.6378,154.83957 197.21041,154.97096 C 199.61552,155.17107 201.01368,155.08521 201.54307,155.11444 C 202.0711,155.1427 202.45342,155.1427 202.45342,155.1427 M 178.07373,151.56358 C 177.50931,150.27436 173.88035,146.08443 172.76286,145.35099 C 171.64894,144.61669 167.25299,141.84307 161.04016,141.84307 C 159.94845,141.84307 156.61237,142.46078 156.61237,142.46078 M 64.183266,167.76638 C 64.183266,167.76638 64.241744,169.87947 64.241744,170.34915 C 64.241744,170.81808 64.241744,171.87648 64.241744,171.87648 M 142.5819,168.26455 C 142.5819,168.26455 142.49418,169.23252 142.49418,169.76264 C 142.49418,170.29067 142.55192,171.40656 142.55192,171.40656 L 142.31813,171.81701 L 121.47721,171.81701 L 91.304015,171.87648 L 62.461132,171.87648 M 138.24603,171.70549 C 138.24603,171.70549 138.24603,168.99984 138.73642,164.77142 C 138.83352,163.93719 139.02931,162.83351 139.08778,162.18853 M 61.346352,167.11967 C 61.346352,167.11967 72.520055,167.35493 74.045536,167.29646 C 75.572868,167.23724 91.069486,167.29646 93.183323,167.29646 C 95.297284,167.29646 110.9116,167.17814 112.67235,167.17814 C 114.43322,167.17814 115.72331,167.11967 117.83789,167.17814 C 119.95185,167.23724 124.06096,167.29646 126.52591,167.23724 C 128.99271,167.17814 131.28186,167.35493 133.10022,166.94436 C 134.92118,166.53217 136.62444,165.06505 137.91539,163.53796 C 139.20634,162.0126 141.26072,159.48794 142.49418,158.19539 C 143.7269,156.90345 146.66276,153.4403 147.89449,152.14935 C 149.12697,150.85679 151.06476,148.80131 152.4132,147.39254 C 153.76349,145.98413 156.23029,143.10663 156.877,142.16691 C 157.52125,141.22806 158.34487,139.34962 158.69525,137.76405 C 159.04932,136.17861 158.88252,134.54901 158.43506,133.52614 C 157.73431,131.92244 152.91742,122.72514 152.12019,121.55966 C 151.12126,120.09845 150.11887,117.99411 149.7189,117.69346 C 148.87282,117.05872 139.44075,117.15581 137.21008,117.09745 C 134.98027,117.03898 124.8245,116.74535 123.00355,116.74535 C 121.18432,116.74535 112.37848,116.97988 110.08958,116.97988 C 107.79969,116.97988 100.10974,117.62647 97.995899,117.91935 C 95.882802,118.21322 91.362369,119.15281 88.134493,120.6208 C 84.905013,122.08867 79.504945,125.25795 77.685718,126.54989 C 75.86575,127.8417 69.877944,132.36312 68.527896,133.65395 C 67.177478,134.94688 65.885661,136.29693 65.1822,137.35261 C 64.477136,138.41002 64.183266,139.81855 63.948862,141.16983 C 63.713593,142.51988 63.302891,146.21854 63.244414,147.56957 C 63.185319,148.91888 63.244414,151.854 63.244414,153.0882 C 63.244414,154.32166 63.244414,157.02126 63.360629,158.48827 C 63.478202,159.95786 63.771824,163.1866 63.890384,164.24303 C 64.007216,165.29945 64.183266,166.88526 64.183266,166.88526 M 63.244414,155.73019 C 62.891696,155.08521 61.717329,152.61828 60.837941,151.44428 C 59.955839,150.2693 58.665626,148.626 57.197759,147.56957 C 55.729769,146.51142 54.672357,145.8071 53.263955,145.22059 C 51.855182,144.63372 50.328097,144.10544 48.451379,143.87091 C 46.571947,143.63577 44.340537,143.5763 42.16995,143.98713 C 39.996895,144.39832 37.414125,145.27969 36.240868,145.92467 C 35.06576,146.57064 33.011141,147.86246 32.249326,148.5669 C 31.485783,149.27197 29.899233,150.91515 29.313468,151.73717 C 28.725976,152.55919 27.963174,153.851 27.963174,153.851 M 53.968032,145.57257 C 53.968032,145.57257 60.250449,145.22059 61.482924,145.16113 C 62.714659,145.10265 68.23489,144.92672 69.994776,144.92672 C 71.755649,144.92672 81.793845,144.28075 84.435093,144.22153 C 87.077204,144.1638 109.73563,143.16585 109.73563,143.16585 M 109.73563,143.16585 C 109.73563,143.16585 117.01599,142.9898 119.18831,142.93046 C 121.36025,142.87124 131.57487,142.51988 134.0999,142.46078 C 136.62444,142.40305 143.90295,142.10844 143.90295,142.10844 M 143.90295,142.10844 C 143.90295,142.10844 160.06873,141.84479 162.86456,141.75634 C 164.74227,141.69798 185.7379,141.58029 185.7379,141.58029 M 187.19195,151.1762 C 187.19195,151.1762 176.18048,151.58665 175.76904,151.76369 C 175.35772,151.939 174.56666,152.36512 173.76525,152.96619 C 173.26708,153.34074 170.20143,155.5534 170.20143,155.5534 M 158.87154,136.35541 C 158.87154,136.35541 153.35464,136.58981 152.35472,136.58981 C 151.35764,136.58981 140.90874,137.00125 139.08778,137.05973 C 137.26942,137.11821 129.46165,137.47018 127.64267,137.52965 C 125.82171,137.58813 114.43322,137.99858 112.02564,138.17562 C 109.61966,138.35229 96.763177,138.93818 93.651393,139.05599 C 90.541212,139.17258 79.211076,139.64349 76.98053,139.81855 C 74.74986,139.99559 64.124172,140.40703 64.124172,140.40703 M 115.60722,137.96083 L 116.48759,116.84158 M 144.60728,117.21774 L 143.84447,136.90848 M 114.13935,116.86293 C 114.13935,116.86293 111.85045,135.23976 111.73276,136.23771 C 111.61666,137.23578 111.08592,143.69425 111.14526,144.51442 C 111.20522,145.33816 110.85238,152.38388 110.85238,153.79252 C 110.85238,155.20105 110.55851,167.11967 110.55851,167.11967 M 164.84788,117.89357 L 166.05049,116.46604 M 173.76525,119.09606 C 173.76525,119.09606 172.17191,119.7635 171.76146,119.9979 M 162.8938,115.18804 C 167.52589,107.56607 172.61691,100.42351 179.14311,94.258417 C 179.67114,93.759628 181.37279,91.998755 181.37279,91.998755 C 181.37279,91.998755 181.37279,91.5883 181.52232,91.264452 C 181.6674,90.941343 182.28413,89.768086 182.54852,89.591049 C 182.81228,89.414258 184.51566,88.563122 185.33657,88.328594 C 186.15859,88.09419 187.302,87.771081 187.91873,87.683364 C 188.53608,87.595031 189.29888,87.3304 189.41485,87.535813 C 189.53513,87.741102 189.38561,88.063964 189.38561,88.563122 C 189.38561,89.062898 189.32713,89.619547 189.44569,89.796585 C 189.56363,89.973252 189.68022,89.944136 190.15014,89.854939 C 190.61907,89.768086 192.37982,89.38576 192.9382,89.209092 C 193.49744,89.033782 195.14037,88.651456 195.90317,88.475406 C 196.66597,88.299355 197.1349,88.27024 197.42853,87.917893 C 197.72314,87.564805 197.87019,87.24293 198.01602,87.184576 C 198.16308,87.124371 200.35414,87.095872 200.35414,87.095872"
   style="fill:none;fill-rule:nonzero;stroke:#1b1c20;stroke-width:0.26771486"
   id="_155362464" /><path
   d="M 200.71735,87.154844 C 200.71735,87.389248 200.65887,87.507191 200.80494,87.713097 C 200.95175,87.918386 201.12879,88.153778 201.06871,88.329088 C 201.01023,88.504151 200.57128,88.739666 200.3935,88.944832 C 200.21918,89.151108 200.07138,89.239442 200.30591,89.591542 C 200.54302,89.94463 200.68811,90.266751 200.80494,90.412822 C 200.92325,90.559634 201.01023,90.736548 200.68811,90.941837 C 200.36426,91.147126 199.68917,91.411756 199.74753,91.763857 C 199.80675,92.116081 199.83697,93.408761 199.83697,93.408761 C 199.83697,93.408761 194.17314,93.202485 193.43785,93.231724 C 192.70428,93.260963 189.29949,93.408761 188.50758,93.553845 C 187.71405,93.701644 186.39288,93.906933 185.71779,94.199815 C 185.04258,94.494425 184.33752,94.846526 183.87031,95.197763 C 183.39866,95.55085 182.52002,96.108363 182.16693,96.226059 C 181.81582,96.342891 181.40265,96.19682 180.93445,95.933053 C 180.46453,95.667682 179.78945,95.168647 179.52568,94.90488 C 179.26204,94.640496 178.96743,94.405968 178.96743,94.405968 M 87.66445,119.2108 C 87.66445,119.2108 86.667119,118.86042 86.198186,118.80034 C 85.728513,118.74112 85.258594,118.56581 84.965711,118.3905 C 84.671101,118.21371 84.555256,118.0959 84.555256,118.0959 C 84.555256,118.09515 81.090384,119.62323 80.151532,120.15064 C 79.211692,120.67866 74.516073,123.02802 73.341705,123.67399 C 72.166721,124.32057 65.592655,128.1943 64.477753,128.95883 C 63.361246,129.72163 59.84024,132.06901 58.841553,132.77333 C 57.844223,133.47778 54.086468,136.17911 54.086468,136.17911 M 74.236021,132.84809 C 73.529969,132.84809 72.343018,132.89189 71.991657,133.12716 C 71.63857,133.36181 70.641363,134.12363 70.406094,134.71186 C 70.171443,135.29873 69.760248,135.94359 69.819342,136.41351 C 69.87856,136.88319 69.87856,137.29475 70.229181,137.47068 C 70.582885,137.64772 70.875767,137.76455 71.287333,138.11665 C 71.697048,138.469 72.520672,138.52735 73.341705,138.52735 C 74.163972,138.52735 75.160932,138.52735 75.630852,138.35278 C 76.099785,138.17611 76.628923,138.35278 76.452872,136.64878 C 76.277562,134.94737 76.218344,133.88922 75.68933,133.53687 C 75.160932,133.18477 74.939358,132.84809 74.236021,132.84809 L 74.236021,132.84809 z M 158.58273,181.79229 C 166.30772,181.79229 172.56843,175.52813 172.56843,167.80561 C 172.56843,160.07963 166.30772,153.82053 158.58273,153.82053 C 150.85922,153.82053 144.60012,160.07963 144.60012,167.80561 C 144.60012,175.52813 150.85922,181.79229 158.58273,181.79229 z M 158.66502,177.3011 C 153.46333,177.3011 149.24442,173.08527 149.24442,167.88272 C 149.24442,162.67696 153.46333,158.46125 158.66502,158.46125 C 163.86584,158.46125 168.08143,162.67696 168.08143,167.88272 C 168.08143,173.08527 163.86584,177.3011 158.66502,177.3011 z M 45.13628,181.79229 C 52.861519,181.79229 59.121605,175.52813 59.121605,167.80561 C 59.121605,160.07963 52.861519,153.82053 45.13628,153.82053 C 37.412028,153.82053 31.153052,160.07963 31.153052,167.80561 C 31.153052,175.52813 37.412028,181.79229 45.13628,181.79229 z M 45.217951,177.3011 C 40.017251,177.3011 35.797349,173.08527 35.797349,167.88272 C 35.797349,162.67696 40.017251,158.46125 45.217951,158.46125 C 50.418775,158.46125 54.634359,162.67696 54.634359,167.88272 C 54.634359,173.08527 50.418775,177.3011 45.217951,177.3011 L 45.217951,177.3011 z "
   style="fill:none;fill-rule:nonzero;stroke:#1b1c20;stroke-width:0.26771486"
   id="_155194352" /><line
   style="fill:none;fill-rule:nonzero;stroke:#1b1c20;stroke-width:0.43525255"
   y2="182.5229"
   x2="193.40392"
   y1="182.5229"
   x1="11.952469"
   class="fil0 str4"
   id="_155287480" /><path
   d="M 72.369419,138.43754 L 71.868533,139.94081 M 74.573317,138.43754 L 74.473756,139.84026 M 107.41181,138.42125 C 107.41181,138.42125 108.93988,133.49283 110.02555,129.0178 C 110.85287,125.60783 112.33875,116.9499 112.33875,116.9499"
   style="fill:none;fill-rule:nonzero;stroke:#1b1c20;stroke-width:0.26771486"
   id="_155364872" />
<path
   style="fill:none;fill-rule:nonzero;stroke:#1b1c20;stroke-width:0.36188406"
   d="M 149.13658,117.51782 C 159.89579,118.59275 167.13945,119.39945 176.7057,128.84121 C 178.79934,130.9076 177.20011,132.44061 176.44199,133.22097 C 174.44589,135.27563 162.4873,136.46894 158.76756,136.3516"
   id="path1946"
   sodipodi:nodetypes="csss" /></svg>